<svg width="416" height="416" viewBox="0 0 416 416" fill="none" xmlns="http://www.w3.org/2000/svg">
<g filter="url(#filter0_d_314_78)">
<path d="M399.103 9.55603C364.757 9.76056 126.882 12.4973 12.2387 13.84C9.46477 37.9833 13.624 283.895 16.0504 403.833C59.1748 403.08 292.56 398.677 403.862 396.57C402.023 359.867 399.923 123.268 399.103 9.55603Z" fill="#FBD767"/>
</g>
<path opacity="0.02" d="M399.105 9.6532C364.676 10.1752 127.177 11.9653 12.2483 13.8399C11.4839 34.5909 11.4227 59.8857 11.4793 91.7768C54.7142 91.0221 287.832 87.0684 399.422 85.0877C399.529 62.6037 399.003 32.4131 399.105 9.6532Z" fill="#222222"/>
<path d="M72.9339 207.541C75.9845 206.287 79.0966 204.433 82.2702 201.977C85.443 199.473 87.8248 197.031 89.4155 194.651C90.3965 193.098 91.1355 191.429 91.6324 189.644C91.8573 188.776 91.9639 188.006 91.9522 187.334C91.9153 185.222 90.7211 184.187 88.3694 184.228C87.8415 184.237 87.2424 184.295 86.5722 184.403C82.3143 185.246 78.6279 187.206 75.5132 190.285C74.5684 191.166 74.0337 192.159 73.9089 193.265C73.6729 196.246 73.4617 199.274 73.2754 202.35L72.9339 207.541ZM73.8602 244.106C72.9004 244.123 71.9835 243.851 71.1096 243.29C70.2836 242.728 69.816 242.064 69.7066 241.298L69.6538 238.275L69.7258 238.273L69.2021 233.026C68.1732 223.586 67.4251 215.102 66.9576 207.573C66.8147 204.887 66.6482 202.226 66.4582 199.588C66.3984 198.917 66.2436 198.296 65.9936 197.724C65.7907 197.104 65.6358 196.482 65.5289 195.86L65.4507 195.501C65.2916 194.64 65.205 193.801 65.1907 192.986C65.1656 191.546 65.7147 190 66.838 188.348C67.0713 187.96 67.2574 187.621 67.3964 187.33C67.5833 187.039 67.8671 186.794 68.2477 186.595L71.745 184.806C74.0285 183.614 76.3129 182.47 78.5981 181.374C80.9313 180.277 83.2018 179.709 85.4094 179.671C88.337 179.62 91.187 180.626 93.9594 182.69C96.4911 184.71 97.7795 187.016 97.8247 189.608C97.849 190.999 97.5386 192.469 96.8935 194.016C94.4387 199.148 90.8621 203.267 86.1636 206.374C82.6995 208.69 79.1365 210.841 75.4745 212.825C74.9037 213.123 74.4776 213.467 74.1963 213.856C73.9142 214.197 73.7786 214.679 73.7895 215.303L73.7971 215.735C75.3425 230.014 76.1324 238.138 76.1667 240.105L76.1894 241.401C76.2187 243.081 75.4423 243.982 73.8602 244.106ZM104.704 226.357C105.184 226.349 105.826 226.001 106.63 225.315C110.516 222.415 112.415 218.469 112.328 213.478C112.284 210.982 111.763 208.591 110.763 206.304C109.81 203.969 108.569 201.638 107.04 199.312C105.74 201.831 104.871 204.343 104.435 206.847C103.646 211.133 103.282 215.052 103.344 218.604C103.376 220.427 103.48 222.25 103.656 224.071C103.73 225.606 104.08 226.368 104.704 226.357ZM105.863 230.874C104.183 230.903 102.615 230.45 101.158 229.515C99.7008 228.533 98.6695 227.207 98.0643 225.537C97.4077 223.676 97.0336 221.498 96.9421 219.003L96.8512 217.925C97.0295 211.633 98.0261 205.47 99.841 199.438C99.9775 199.003 100.042 198.594 100.036 198.21C100.022 197.442 99.7457 196.727 99.2061 196.064C98.7144 195.401 98.4648 194.853 98.4573 194.421C98.4439 193.653 99.1567 193.233 100.596 193.16L101.531 193.143C105.131 193.081 108.056 194.278 110.307 196.735C115.102 201.884 117.8 207.934 118.401 214.884L118.412 215.46C118.461 218.292 117.48 221.213 115.468 224.225C113.504 227.236 111.14 229.293 108.375 230.398C107.516 230.701 106.678 230.859 105.863 230.874ZM133.926 229.304C132.294 229.332 130.726 228.879 129.222 227.945C128.494 227.478 127.955 226.887 127.607 226.173L127.526 225.671C127.513 224.951 127.649 224.468 127.933 224.223C128.264 223.93 128.717 223.778 129.293 223.768C129.581 223.763 129.822 223.83 130.017 223.971C130.748 224.63 131.522 224.953 132.338 224.939C133.106 224.925 133.87 224.696 134.63 224.25C137.154 223.102 139.628 221.787 142.05 220.304C142.287 220.108 142.498 219.816 142.683 219.429C142.868 219.042 142.959 218.704 142.954 218.416C142.948 218.08 142.63 217.774 142.001 217.497C141.372 217.172 139.689 217.033 136.953 217.081L134.003 217.204C130.5 217.266 127.677 216.427 125.534 214.688C124.025 213.514 123.259 212.231 123.234 210.839C123.219 209.975 123.564 209.081 124.268 208.157C127.372 204.454 130.671 200.94 134.165 197.615C135.723 196.099 137.38 194.774 139.137 193.639C140.941 192.504 142.611 191.922 144.147 191.895C146.067 191.862 147.929 192.694 149.735 194.39C150.076 194.672 150.371 195.051 150.619 195.527C150.916 196.002 151.067 196.407 151.073 196.743L151.006 197.033C150.356 198.34 149.39 199.389 148.108 200.18L147.965 200.254C147.773 200.257 147.507 200.142 147.167 199.908C146.826 199.626 146.51 199.367 146.218 199.132C145.925 198.897 145.682 198.71 145.488 198.569C145.292 198.38 145.145 198.191 145.046 198.001C144.993 197.762 144.917 197.523 144.817 197.285C138.599 201.33 133.428 206.245 129.304 212.03C129.357 212.317 129.458 212.603 129.607 212.888L132.559 212.837C136.398 212.77 139.597 213.146 142.156 213.966C144.232 214.649 146.103 215.937 147.768 217.828C148.503 218.68 148.877 219.489 148.891 220.257C148.904 221.025 148.605 221.798 147.995 222.577C146.539 224.427 144.835 225.801 142.882 226.699C140.929 227.549 138.877 228.257 136.726 228.823C135.771 229.127 134.838 229.288 133.926 229.304ZM167.432 234.624C165.848 234.651 164.305 234.222 162.801 233.336C161.345 232.449 160.313 231.051 159.703 229.142C158.671 224.983 158.118 220.816 158.045 216.641C158.012 214.769 158.051 212.872 158.162 210.95L158.253 207.924L157.398 208.443L155.619 209.698C154.814 210.336 154.004 210.662 153.188 210.677C152.228 210.693 151.357 210.276 150.574 209.426C150.085 208.906 149.836 208.383 149.826 207.855C149.816 207.279 150.143 206.769 150.808 206.325C151.472 205.882 152.112 205.439 152.729 204.996C154.2 204.01 155.672 203.096 157.146 202.254C158.287 201.61 158.966 200.662 159.184 199.41L164.689 172.382C164.856 170.939 165.42 170.209 166.38 170.192C166.811 170.185 167.317 170.296 167.898 170.526C170.263 171.301 171.457 172.312 171.479 173.56C171.486 173.944 171.374 174.402 171.143 174.934C169.857 178.269 168.837 181.695 168.082 185.213C167.374 188.682 166.721 192.51 166.122 196.697C166.126 196.937 166.153 197.104 166.203 197.199C166.253 197.294 166.278 197.39 166.28 197.486L170.158 196.914C172.313 196.589 173.654 196.421 174.182 196.412C174.662 196.404 175.095 196.468 175.482 196.605C176.016 196.932 176.526 197.307 177.014 197.731L177.745 198.366L177.106 198.881C176.633 199.274 176.134 199.594 175.61 199.844L171.676 201.352C169.958 201.959 168.242 202.613 166.526 203.315C166.145 203.513 165.767 203.832 165.39 204.271C165.062 204.708 164.877 205.144 164.837 205.576L164.541 209.254C164.214 212.524 164.079 215.815 164.137 219.127C164.186 221.91 164.523 224.713 165.148 227.534C165.254 228.109 165.458 228.777 165.759 229.54L165.988 230.256L166.915 229.736C168.485 228.94 171.748 226.099 176.704 221.212C177.176 220.771 177.604 220.548 177.988 220.541C178.372 220.535 178.664 220.745 178.863 221.174C179.063 221.603 179.215 222.056 179.319 222.534C179.471 222.964 179.55 223.394 179.558 223.826C179.564 224.21 179.498 224.547 179.359 224.838C177.357 228.377 174.647 231.281 171.23 233.549C170.09 234.241 168.824 234.599 167.432 234.624ZM207.17 230.617L206.378 230.631C204.122 230.671 202.859 229.805 202.588 228.033C202.297 225.11 202.125 222.136 202.072 219.113C202.018 215.993 202.131 208.742 202.413 197.359C202.483 190.397 202.563 186.723 202.652 186.338C202.697 186.145 202.717 185.928 202.713 185.688C202.678 183.673 203.212 182.655 204.316 182.636C204.892 182.626 205.567 182.782 206.34 183.105C208.081 183.794 209.233 185.167 209.797 187.221C210.705 189.75 211.804 192.203 213.094 194.581L223.092 214.569L223.611 215.424C223.801 215.325 224.04 215.273 224.328 215.268L224.062 200.006C224.047 199.142 224.056 198.302 224.09 197.485L224.013 193.094C223.921 187.815 223.412 183.407 222.486 179.87L222.404 179.296C222.388 178.384 222.908 177.895 223.963 177.828C225.547 177.801 226.85 178.21 227.873 179.056C228.943 179.854 229.539 180.996 229.661 182.482C229.894 187.566 230.078 192.628 230.214 197.666C230.577 207.453 230.988 217.264 231.448 227.097C231.475 228.633 230.865 229.436 229.618 229.506C229.283 229.559 228.923 229.59 228.539 229.596C226.667 229.629 225.311 228.909 224.469 227.435C217.437 215.124 212.261 205.997 208.941 200.054C208.905 200.775 208.845 201.448 208.76 202.073C208.59 203.373 208.517 204.646 208.538 205.894C208.711 213.044 208.932 220.217 209.202 227.414L209.217 228.277C209.228 228.901 209.117 229.431 208.885 229.867C208.652 230.304 208.081 230.554 207.17 230.617ZM244.323 223.92C244.803 223.912 245.445 223.564 246.249 222.878C250.135 219.978 252.034 216.032 251.947 211.041C251.904 208.545 251.382 206.154 250.382 203.867C249.429 201.532 248.188 199.201 246.659 196.875C245.359 199.394 244.491 201.906 244.054 204.41C243.265 208.696 242.901 212.615 242.963 216.167C242.995 217.99 243.099 219.813 243.275 221.634C243.35 223.169 243.699 223.931 244.323 223.92ZM245.482 228.436C243.802 228.466 242.234 228.013 240.778 227.078C239.32 226.096 238.289 224.769 237.684 223.1C237.027 221.239 236.653 219.061 236.561 216.566L236.471 215.488C236.649 209.196 237.645 203.033 239.46 197.001C239.597 196.566 239.662 196.157 239.655 195.773C239.642 195.005 239.365 194.29 238.825 193.627C238.334 192.964 238.084 192.416 238.077 191.984C238.063 191.216 238.776 190.796 240.215 190.723L241.151 190.706C244.75 190.643 247.676 191.841 249.927 194.298C254.721 199.447 257.419 205.497 258.021 212.447L258.031 213.023C258.08 215.855 257.099 218.776 255.087 221.788C253.124 224.799 250.759 226.856 247.994 227.961C247.135 228.264 246.298 228.422 245.482 228.436ZM276.822 232.714C275.238 232.742 273.694 232.313 272.191 231.427C270.735 230.54 269.702 229.142 269.093 227.232C268.06 223.074 267.507 218.907 267.434 214.731C267.402 212.86 267.441 210.963 267.551 209.04L267.642 206.014L266.787 206.533L265.009 207.789C264.204 208.427 263.394 208.753 262.578 208.767C261.618 208.784 260.746 208.367 259.963 207.517C259.474 206.997 259.225 206.473 259.216 205.945C259.206 205.369 259.533 204.86 260.197 204.416C260.862 203.972 261.502 203.529 262.118 203.086C263.589 202.1 265.062 201.187 266.535 200.345C267.676 199.701 268.356 198.753 268.574 197.501L274.079 170.473C274.246 169.029 274.809 168.299 275.769 168.283C276.201 168.275 276.707 168.386 277.287 168.616C279.653 169.391 280.847 170.402 280.869 171.65C280.875 172.034 280.763 172.492 280.533 173.024C279.247 176.359 278.226 179.786 277.472 183.303C276.764 186.772 276.111 190.6 275.512 194.787C275.516 195.027 275.543 195.195 275.592 195.29C275.642 195.385 275.668 195.481 275.669 195.577L279.548 195.005C281.703 194.679 283.044 194.512 283.572 194.503C284.052 194.494 284.485 194.559 284.871 194.696C285.405 195.023 285.916 195.398 286.403 195.821L287.135 196.457L286.495 196.972C286.022 197.364 285.524 197.685 285 197.934L281.066 199.443C279.348 200.049 277.631 200.703 275.915 201.405C275.535 201.604 275.156 201.923 274.78 202.361C274.451 202.799 274.267 203.234 274.226 203.667L273.931 207.345C273.604 210.615 273.469 213.906 273.527 217.217C273.575 220.001 273.912 222.803 274.538 225.625C274.644 226.199 274.847 226.868 275.149 227.631L275.377 228.347L276.304 227.826C277.875 227.031 281.138 224.19 286.093 219.302C286.565 218.862 286.994 218.639 287.378 218.632C287.762 218.625 288.053 218.836 288.253 219.265C288.452 219.693 288.604 220.147 288.709 220.625C288.86 221.054 288.94 221.485 288.947 221.917C288.954 222.301 288.888 222.638 288.749 222.929C286.746 226.468 284.037 229.372 280.62 231.64C279.479 232.332 278.214 232.69 276.822 232.714ZM301.155 205.645C304.069 204.778 306.422 203.441 308.214 201.634C310.007 199.826 310.888 198.01 310.856 196.187C310.845 195.563 310.69 194.941 310.391 194.322C308.441 195.365 306.833 196.737 305.566 198.439C304.347 200.093 303.226 201.889 302.204 203.827L301.155 205.645ZM305.653 228.178C302.534 228.233 299.662 227.371 297.039 225.592C294.415 223.814 292.812 221.321 292.228 218.115C292.122 217.589 292.065 217.062 292.056 216.534L292.08 213.797C292.065 212.933 291.954 212.047 291.746 211.138C291.591 210.517 291.509 209.942 291.5 209.414C291.483 208.455 291.997 207.654 293.042 207.011C293.755 206.615 294.345 206.052 294.813 205.324C296.533 202.126 298.375 199.021 300.339 196.01C300.714 195.476 301.088 194.917 301.462 194.334C301.883 193.703 302.376 193.094 302.942 192.508C304.642 190.846 306.379 190 308.155 189.969C309.739 189.941 311.382 190.561 313.084 191.827C314.936 193.427 315.882 195.355 315.921 197.61C315.945 198.954 315.632 200.28 314.983 201.587C313.958 203.382 312.663 204.844 311.099 205.976C308.157 207.996 305.397 209.388 302.818 210.153C299.381 211.269 297.694 213.603 297.756 217.154C297.766 217.73 297.825 218.353 297.932 219.024C298.666 222.563 300.882 224.373 304.58 224.452L305.804 224.431L305.8 224.215C308.59 224.551 310.206 224.954 310.646 225.427C310.842 225.663 310.942 225.878 310.945 226.07C310.903 226.406 310.741 226.721 310.458 227.014C310.222 227.258 309.985 227.431 309.747 227.531C308.41 227.938 307.045 228.154 305.653 228.178ZM327.256 225.929C325.624 225.957 324.056 225.505 322.552 224.571C321.823 224.103 321.285 223.513 320.937 222.799L320.856 222.296C320.843 221.576 320.979 221.094 321.263 220.849C321.593 220.555 322.047 220.403 322.623 220.393C322.911 220.388 323.152 220.456 323.346 220.596C324.078 221.256 324.852 221.578 325.668 221.564C326.436 221.551 327.2 221.321 327.96 220.876C330.484 219.728 332.958 218.412 335.38 216.93C335.617 216.734 335.828 216.442 336.013 216.055C336.198 215.667 336.289 215.33 336.284 215.042C336.278 214.706 335.96 214.399 335.331 214.122C334.702 213.797 333.019 213.659 330.283 213.706L327.333 213.83C323.83 213.891 321.006 213.052 318.864 211.313C317.355 210.139 316.589 208.857 316.564 207.465C316.549 206.601 316.894 205.707 317.598 204.782C320.701 201.08 324.001 197.565 327.495 194.24C329.053 192.725 330.71 191.399 332.467 190.265C334.271 189.129 335.941 188.548 337.477 188.521C339.397 188.487 341.259 189.319 343.065 191.016C343.406 191.298 343.701 191.677 343.949 192.152C344.246 192.627 344.397 193.033 344.403 193.369L344.336 193.658C343.686 194.965 342.72 196.015 341.438 196.805L341.295 196.88C341.103 196.883 340.837 196.767 340.497 196.533C340.156 196.251 339.84 195.993 339.547 195.758C339.255 195.523 339.012 195.335 338.818 195.194C338.622 195.006 338.475 194.816 338.376 194.626C338.323 194.387 338.247 194.148 338.147 193.91C331.929 197.955 326.758 202.87 322.634 208.655C322.687 208.942 322.788 209.228 322.937 209.514L325.889 209.462C329.728 209.395 332.927 209.772 335.486 210.591C337.562 211.275 339.433 212.562 341.098 214.454C341.833 215.305 342.207 216.115 342.221 216.882C342.234 217.65 341.935 218.424 341.325 219.202C339.869 221.052 338.165 222.426 336.212 223.324C334.259 224.174 332.207 224.882 330.056 225.448C329.101 225.753 328.168 225.913 327.256 225.929Z" fill="#222222"/>
<defs>
<filter id="filter0_d_314_78" x="5.31921" y="9.55603" width="402.542" height="404.277" filterUnits="userSpaceOnUse" color-interpolation-filters="sRGB">
<feFlood flood-opacity="0" result="BackgroundImageFix"/>
<feColorMatrix in="SourceAlpha" type="matrix" values="0 0 0 0 0 0 0 0 0 0 0 0 0 0 0 0 0 0 127 0" result="hardAlpha"/>
<feOffset dx="-1" dy="5"/>
<feGaussianBlur stdDeviation="2.5"/>
<feComposite in2="hardAlpha" operator="out"/>
<feColorMatrix type="matrix" values="0 0 0 0 0 0 0 0 0 0 0 0 0 0 0 0 0 0 0.3 0"/>
<feBlend mode="normal" in2="BackgroundImageFix" result="effect1_dropShadow_314_78"/>
<feBlend mode="normal" in="SourceGraphic" in2="effect1_dropShadow_314_78" result="shape"/>
</filter>
</defs>
</svg>
