<svg width="311" height="81" viewBox="0 0 311 81" fill="none" xmlns="http://www.w3.org/2000/svg">
<mask id="path-1-outside-1_6_67" maskUnits="userSpaceOnUse" x="-3" y="-3" width="317" height="87" fill="black">
<rect fill="white" x="-3" y="-3" width="317" height="87"/>
<path d="M8.48 40.16C11.8933 38.8267 15.3867 36.8267 18.96 34.16C22.5333 31.44 25.2267 28.7733 27.04 26.16C28.16 24.4533 29.0133 22.6133 29.6 20.64C29.8667 19.68 30 18.8267 30 18.08C30 15.7333 28.6933 14.56 26.08 14.56C25.4933 14.56 24.8267 14.6133 24.08 14.72C19.3333 15.5733 15.2 17.68 11.68 21.04C10.6133 22 10 23.0933 9.84 24.32C9.52 27.6267 9.22667 30.9867 8.96 34.4L8.48 40.16ZM8.8 80.8C7.73333 80.8 6.72 80.48 5.76 79.84C4.85333 79.2 4.34667 78.4533 4.24 77.6V74.24H4.32L3.84 68.4C2.88 57.8933 2.21333 48.4533 1.84 40.08C1.73333 37.0933 1.6 34.1333 1.44 31.2C1.38667 30.4533 1.22667 29.76 0.96 29.12C0.746667 28.4267 0.586667 27.7333 0.48 27.04L0.4 26.64C0.24 25.68 0.16 24.7467 0.16 23.84C0.16 22.24 0.8 20.5333 2.08 18.72C2.34667 18.2933 2.56 17.92 2.72 17.6C2.93333 17.28 3.25333 17.0133 3.68 16.8L7.6 14.88C10.16 13.6 12.72 12.3733 15.28 11.2C17.8933 10.0267 20.4267 9.44 22.88 9.44C26.1333 9.44 29.28 10.6133 32.32 12.96C35.0933 15.2533 36.48 17.84 36.48 20.72C36.48 22.2667 36.1067 23.8933 35.36 25.6C32.5333 31.2533 28.48 35.76 23.2 39.12C19.3067 41.6267 15.3067 43.9467 11.2 46.08C10.56 46.4 10.08 46.7733 9.76 47.2C9.44 47.5733 9.28 48.1067 9.28 48.8V49.28C10.72 65.1733 11.44 74.2133 11.44 76.4V77.84C11.44 79.7067 10.56 80.6933 8.8 80.8ZM43.4094 61.68C43.9427 61.68 44.6627 61.3067 45.5694 60.56C49.9427 57.4133 52.1294 53.0667 52.1294 47.52C52.1294 44.7467 51.596 42.08 50.5294 39.52C49.516 36.9067 48.1827 34.2933 46.5294 31.68C45.036 34.4533 44.0227 37.2267 43.4894 40C42.5294 44.7467 42.0494 49.0933 42.0494 53.04C42.0494 55.0667 42.1294 57.0933 42.2894 59.12C42.3427 60.8267 42.716 61.68 43.4094 61.68ZM44.6094 66.72C42.7427 66.72 41.0094 66.1867 39.4094 65.12C37.8094 64 36.6894 62.5067 36.0494 60.64C35.356 58.56 34.9827 56.1333 34.9294 53.36L34.8494 52.16C35.1694 45.1733 36.396 38.3467 38.5294 31.68C38.6894 31.2 38.7694 30.7467 38.7694 30.32C38.7694 29.4667 38.476 28.6667 37.8894 27.92C37.356 27.1733 37.0894 26.56 37.0894 26.08C37.0894 25.2267 37.8894 24.7733 39.4894 24.72H40.5294C44.5294 24.72 47.756 26.1067 50.2094 28.88C55.436 34.6933 58.316 41.4667 58.8494 49.2V49.84C58.8494 52.9867 57.7027 56.2133 55.4094 59.52C53.1694 62.8267 50.5027 65.0667 47.4094 66.24C46.4494 66.56 45.516 66.72 44.6094 66.72ZM75.8169 65.52C74.0035 65.52 72.2702 64.9867 70.6169 63.92C69.8169 63.3867 69.2302 62.72 68.8569 61.92L68.7769 61.36C68.7769 60.56 68.9369 60.0267 69.2569 59.76C69.6302 59.44 70.1369 59.28 70.7769 59.28C71.0969 59.28 71.3635 59.36 71.5769 59.52C72.3769 60.2667 73.2302 60.64 74.1369 60.64C74.9902 60.64 75.8435 60.4 76.6969 59.92C79.5235 58.6933 82.2969 57.28 85.0169 55.68C85.2835 55.4667 85.5235 55.1467 85.7369 54.72C85.9502 54.2933 86.0569 53.92 86.0569 53.6C86.0569 53.2267 85.7102 52.88 85.0169 52.56C84.3235 52.1867 82.4569 52 79.4169 52L76.1369 52.08C72.2435 52.08 69.1235 51.0933 66.7769 49.12C65.1235 47.7867 64.2969 46.3467 64.2969 44.8C64.2969 43.84 64.6969 42.8533 65.4969 41.84C69.0169 37.7867 72.7502 33.9467 76.6969 30.32C78.4569 28.6667 80.3235 27.2267 82.2969 26C84.3235 24.7733 86.1902 24.16 87.8969 24.16C90.0302 24.16 92.0835 25.12 94.0569 27.04C94.4302 27.36 94.7502 27.7867 95.0169 28.32C95.3369 28.8533 95.4969 29.3067 95.4969 29.68L95.4169 30C94.6702 31.44 93.5769 32.5867 92.1369 33.44L91.9769 33.52C91.7635 33.52 91.4702 33.3867 91.0969 33.12C90.7235 32.8 90.3769 32.5067 90.0569 32.24C89.7369 31.9733 89.4702 31.76 89.2569 31.6C89.0435 31.3867 88.8835 31.1733 88.7769 30.96C88.7235 30.6933 88.6435 30.4267 88.5369 30.16C81.5502 34.5333 75.7102 39.8933 71.0169 46.24C71.0702 46.56 71.1769 46.88 71.3369 47.2H74.6169C78.8835 47.2 82.4302 47.68 85.2569 48.64C87.5502 49.44 89.6035 50.9067 91.4169 53.04C92.2169 54 92.6169 54.9067 92.6169 55.76C92.6169 56.6133 92.2702 57.4667 91.5769 58.32C89.9235 60.3467 88.0035 61.84 85.8169 62.8C83.6302 63.7067 81.3369 64.4533 78.9369 65.04C77.8702 65.36 76.8302 65.52 75.8169 65.52ZM112.937 72.08C111.177 72.08 109.47 71.5733 107.817 70.56C106.217 69.5467 105.097 67.9733 104.457 65.84C103.39 61.2 102.857 56.56 102.857 51.92C102.857 49.84 102.937 47.7333 103.097 45.6L103.257 42.24L102.297 42.8L100.297 44.16C99.3902 44.8533 98.4835 45.2 97.5769 45.2C96.5102 45.2 95.5502 44.72 94.6969 43.76C94.1635 43.1733 93.8969 42.5867 93.8969 42C93.8969 41.36 94.2702 40.8 95.0169 40.32C95.7635 39.84 96.4835 39.36 97.1769 38.88C98.8302 37.8133 100.484 36.8267 102.137 35.92C103.417 35.2267 104.19 34.1867 104.457 32.8L111.097 2.88C111.31 1.28 111.95 0.479997 113.017 0.479997C113.497 0.479997 114.057 0.61333 114.697 0.879996C117.31 1.78666 118.617 2.93333 118.617 4.31999C118.617 4.74666 118.484 5.25333 118.217 5.84C116.724 9.52 115.524 13.3067 114.617 17.2C113.764 21.04 112.964 25.28 112.217 29.92C112.217 30.1867 112.244 30.3733 112.297 30.48C112.35 30.5867 112.377 30.6933 112.377 30.8L116.697 30.24C119.097 29.92 120.59 29.76 121.177 29.76C121.71 29.76 122.19 29.84 122.617 30C123.204 30.3733 123.764 30.8 124.297 31.28L125.097 32L124.377 32.56C123.844 32.9867 123.284 33.3333 122.697 33.6L118.297 35.2C116.377 35.84 114.457 36.5333 112.537 37.28C112.11 37.4933 111.684 37.84 111.257 38.32C110.884 38.8 110.67 39.28 110.617 39.76L110.217 43.84C109.79 47.4667 109.577 51.12 109.577 54.8C109.577 57.8933 109.897 61.0133 110.537 64.16C110.644 64.8 110.857 65.5467 111.177 66.4L111.417 67.2L112.457 66.64C114.217 65.7867 117.897 62.6933 123.497 57.36C124.03 56.88 124.51 56.64 124.937 56.64C125.364 56.64 125.684 56.88 125.897 57.36C126.11 57.84 126.27 58.3467 126.377 58.88C126.537 59.36 126.617 59.84 126.617 60.32C126.617 60.7467 126.537 61.12 126.377 61.44C124.084 65.3333 121.017 68.5067 117.177 70.96C115.897 71.7067 114.484 72.08 112.937 72.08ZM157.161 68.4H156.281C153.774 68.4 152.387 67.4133 152.121 65.44C151.854 62.1867 151.721 58.88 151.721 55.52C151.721 52.0533 151.987 44 152.521 31.36C152.734 23.6267 152.894 19.5467 153.001 19.12C153.054 18.9067 153.081 18.6667 153.081 18.4C153.081 16.16 153.694 15.04 154.921 15.04C155.561 15.04 156.307 15.2267 157.161 15.6C159.081 16.4 160.334 17.9467 160.921 20.24C161.881 23.0667 163.054 25.8133 164.441 28.48L175.161 50.88L175.721 51.84C175.934 51.7333 176.201 51.68 176.521 51.68V34.72C176.521 33.76 176.547 32.8267 176.601 31.92V27.04C176.601 21.1733 176.121 16.2667 175.161 12.32L175.081 11.68C175.081 10.6667 175.667 10.1333 176.841 10.08C178.601 10.08 180.041 10.56 181.161 11.52C182.334 12.4267 182.974 13.7067 183.081 15.36C183.241 21.0133 183.347 26.64 183.401 32.24C183.614 43.12 183.881 54.0267 184.201 64.96C184.201 66.6667 183.507 67.5467 182.121 67.6C181.747 67.6533 181.347 67.68 180.921 67.68C178.841 67.68 177.347 66.8533 176.441 65.2C168.867 51.3867 163.294 41.1467 159.721 34.48C159.667 35.28 159.587 36.0267 159.481 36.72C159.267 38.16 159.161 39.5733 159.161 40.96C159.214 48.9067 159.321 56.88 159.481 64.88V65.84C159.481 66.5333 159.347 67.12 159.081 67.6C158.814 68.08 158.174 68.3467 157.161 68.4ZM198.566 61.68C199.099 61.68 199.819 61.3067 200.726 60.56C205.099 57.4133 207.286 53.0667 207.286 47.52C207.286 44.7467 206.752 42.08 205.686 39.52C204.672 36.9067 203.339 34.2933 201.686 31.68C200.192 34.4533 199.179 37.2267 198.646 40C197.686 44.7467 197.206 49.0933 197.206 53.04C197.206 55.0667 197.286 57.0933 197.446 59.12C197.499 60.8267 197.872 61.68 198.566 61.68ZM199.766 66.72C197.899 66.72 196.166 66.1867 194.566 65.12C192.966 64 191.846 62.5067 191.206 60.64C190.512 58.56 190.139 56.1333 190.086 53.36L190.006 52.16C190.326 45.1733 191.552 38.3467 193.686 31.68C193.846 31.2 193.926 30.7467 193.926 30.32C193.926 29.4667 193.632 28.6667 193.046 27.92C192.512 27.1733 192.246 26.56 192.246 26.08C192.246 25.2267 193.046 24.7733 194.646 24.72H195.686C199.686 24.72 202.912 26.1067 205.366 28.88C210.592 34.6933 213.472 41.4667 214.006 49.2V49.84C214.006 52.9867 212.859 56.2133 210.566 59.52C208.326 62.8267 205.659 65.0667 202.566 66.24C201.606 66.56 200.672 66.72 199.766 66.72ZM234.499 72.08C232.739 72.08 231.033 71.5733 229.379 70.56C227.779 69.5467 226.659 67.9733 226.019 65.84C224.953 61.2 224.419 56.56 224.419 51.92C224.419 49.84 224.499 47.7333 224.659 45.6L224.819 42.24L223.859 42.8L221.859 44.16C220.953 44.8533 220.046 45.2 219.139 45.2C218.073 45.2 217.113 44.72 216.259 43.76C215.726 43.1733 215.459 42.5867 215.459 42C215.459 41.36 215.833 40.8 216.579 40.32C217.326 39.84 218.046 39.36 218.739 38.88C220.393 37.8133 222.046 36.8267 223.699 35.92C224.979 35.2267 225.753 34.1867 226.019 32.8L232.659 2.88C232.873 1.28 233.513 0.479997 234.579 0.479997C235.059 0.479997 235.619 0.61333 236.259 0.879996C238.873 1.78666 240.179 2.93333 240.179 4.31999C240.179 4.74666 240.046 5.25333 239.779 5.84C238.286 9.52 237.086 13.3067 236.179 17.2C235.326 21.04 234.526 25.28 233.779 29.92C233.779 30.1867 233.806 30.3733 233.859 30.48C233.913 30.5867 233.939 30.6933 233.939 30.8L238.259 30.24C240.659 29.92 242.153 29.76 242.739 29.76C243.273 29.76 243.753 29.84 244.179 30C244.766 30.3733 245.326 30.8 245.859 31.28L246.659 32L245.939 32.56C245.406 32.9867 244.846 33.3333 244.259 33.6L239.859 35.2C237.939 35.84 236.019 36.5333 234.099 37.28C233.673 37.4933 233.246 37.84 232.819 38.32C232.446 38.8 232.233 39.28 232.179 39.76L231.779 43.84C231.353 47.4667 231.139 51.12 231.139 54.8C231.139 57.8933 231.459 61.0133 232.099 64.16C232.206 64.8 232.419 65.5467 232.739 66.4L232.979 67.2L234.019 66.64C235.779 65.7867 239.459 62.6933 245.059 57.36C245.593 56.88 246.073 56.64 246.499 56.64C246.926 56.64 247.246 56.88 247.459 57.36C247.673 57.84 247.833 58.3467 247.939 58.88C248.099 59.36 248.179 59.84 248.179 60.32C248.179 60.7467 248.099 61.12 247.939 61.44C245.646 65.3333 242.579 68.5067 238.739 70.96C237.459 71.7067 236.046 72.08 234.499 72.08ZM262.058 42.48C265.311 41.5733 267.951 40.1333 269.978 38.16C272.004 36.1867 273.018 34.1867 273.018 32.16C273.018 31.4667 272.858 30.7733 272.538 30.08C270.351 31.2 268.538 32.6933 267.098 34.56C265.711 36.3733 264.431 38.3467 263.258 40.48L262.058 42.48ZM266.618 67.6C263.151 67.6 259.978 66.5867 257.098 64.56C254.218 62.5333 252.484 59.7333 251.898 56.16C251.791 55.5733 251.738 54.9867 251.738 54.4L251.818 51.36C251.818 50.4 251.711 49.4133 251.498 48.4C251.338 47.7067 251.258 47.0667 251.258 46.48C251.258 45.4133 251.844 44.5333 253.018 43.84C253.818 43.4133 254.484 42.8 255.018 42C256.991 38.48 259.098 35.0667 261.338 31.76C261.764 31.1733 262.191 30.56 262.618 29.92C263.098 29.2267 263.658 28.56 264.298 27.92C266.218 26.1067 268.164 25.2 270.138 25.2C271.898 25.2 273.711 25.92 275.578 27.36C277.604 29.1733 278.618 31.3333 278.618 33.84C278.618 35.3333 278.244 36.8 277.498 38.24C276.324 40.2133 274.858 41.8133 273.098 43.04C269.791 45.2267 266.698 46.72 263.818 47.52C259.978 48.6933 258.058 51.2533 258.058 55.2C258.058 55.84 258.111 56.5333 258.218 57.28C258.964 61.2267 261.391 63.28 265.498 63.44H266.858V63.2C269.951 63.6267 271.738 64.1067 272.218 64.64C272.431 64.9067 272.538 65.1467 272.538 65.36C272.484 65.7333 272.298 66.08 271.978 66.4C271.711 66.6667 271.444 66.8533 271.178 66.96C269.684 67.3867 268.164 67.6 266.618 67.6ZM290.661 65.52C288.847 65.52 287.114 64.9867 285.461 63.92C284.661 63.3867 284.074 62.72 283.701 61.92L283.621 61.36C283.621 60.56 283.781 60.0267 284.101 59.76C284.474 59.44 284.981 59.28 285.621 59.28C285.941 59.28 286.207 59.36 286.421 59.52C287.221 60.2667 288.074 60.64 288.981 60.64C289.834 60.64 290.687 60.4 291.541 59.92C294.367 58.6933 297.141 57.28 299.861 55.68C300.127 55.4667 300.367 55.1467 300.581 54.72C300.794 54.2933 300.901 53.92 300.901 53.6C300.901 53.2267 300.554 52.88 299.861 52.56C299.167 52.1867 297.301 52 294.261 52L290.981 52.08C287.087 52.08 283.967 51.0933 281.621 49.12C279.967 47.7867 279.141 46.3467 279.141 44.8C279.141 43.84 279.541 42.8533 280.341 41.84C283.861 37.7867 287.594 33.9467 291.541 30.32C293.301 28.6667 295.167 27.2267 297.141 26C299.167 24.7733 301.034 24.16 302.741 24.16C304.874 24.16 306.927 25.12 308.901 27.04C309.274 27.36 309.594 27.7867 309.861 28.32C310.181 28.8533 310.341 29.3067 310.341 29.68L310.261 30C309.514 31.44 308.421 32.5867 306.981 33.44L306.821 33.52C306.607 33.52 306.314 33.3867 305.941 33.12C305.567 32.8 305.221 32.5067 304.901 32.24C304.581 31.9733 304.314 31.76 304.101 31.6C303.887 31.3867 303.727 31.1733 303.621 30.96C303.567 30.6933 303.487 30.4267 303.381 30.16C296.394 34.5333 290.554 39.8933 285.861 46.24C285.914 46.56 286.021 46.88 286.181 47.2H289.461C293.727 47.2 297.274 47.68 300.101 48.64C302.394 49.44 304.447 50.9067 306.261 53.04C307.061 54 307.461 54.9067 307.461 55.76C307.461 56.6133 307.114 57.4667 306.421 58.32C304.767 60.3467 302.847 61.84 300.661 62.8C298.474 63.7067 296.181 64.4533 293.781 65.04C292.714 65.36 291.674 65.52 290.661 65.52Z"/>
</mask>
<path d="M8.48 40.16C11.8933 38.8267 15.3867 36.8267 18.96 34.16C22.5333 31.44 25.2267 28.7733 27.04 26.16C28.16 24.4533 29.0133 22.6133 29.6 20.64C29.8667 19.68 30 18.8267 30 18.08C30 15.7333 28.6933 14.56 26.08 14.56C25.4933 14.56 24.8267 14.6133 24.08 14.72C19.3333 15.5733 15.2 17.68 11.68 21.04C10.6133 22 10 23.0933 9.84 24.32C9.52 27.6267 9.22667 30.9867 8.96 34.4L8.48 40.16ZM8.8 80.8C7.73333 80.8 6.72 80.48 5.76 79.84C4.85333 79.2 4.34667 78.4533 4.24 77.6V74.24H4.32L3.84 68.4C2.88 57.8933 2.21333 48.4533 1.84 40.08C1.73333 37.0933 1.6 34.1333 1.44 31.2C1.38667 30.4533 1.22667 29.76 0.96 29.12C0.746667 28.4267 0.586667 27.7333 0.48 27.04L0.4 26.64C0.24 25.68 0.16 24.7467 0.16 23.84C0.16 22.24 0.8 20.5333 2.08 18.72C2.34667 18.2933 2.56 17.92 2.72 17.6C2.93333 17.28 3.25333 17.0133 3.68 16.8L7.6 14.88C10.16 13.6 12.72 12.3733 15.28 11.2C17.8933 10.0267 20.4267 9.44 22.88 9.44C26.1333 9.44 29.28 10.6133 32.32 12.96C35.0933 15.2533 36.48 17.84 36.48 20.72C36.48 22.2667 36.1067 23.8933 35.36 25.6C32.5333 31.2533 28.48 35.76 23.2 39.12C19.3067 41.6267 15.3067 43.9467 11.2 46.08C10.56 46.4 10.08 46.7733 9.76 47.2C9.44 47.5733 9.28 48.1067 9.28 48.8V49.28C10.72 65.1733 11.44 74.2133 11.44 76.4V77.84C11.44 79.7067 10.56 80.6933 8.8 80.8ZM43.4094 61.68C43.9427 61.68 44.6627 61.3067 45.5694 60.56C49.9427 57.4133 52.1294 53.0667 52.1294 47.52C52.1294 44.7467 51.596 42.08 50.5294 39.52C49.516 36.9067 48.1827 34.2933 46.5294 31.68C45.036 34.4533 44.0227 37.2267 43.4894 40C42.5294 44.7467 42.0494 49.0933 42.0494 53.04C42.0494 55.0667 42.1294 57.0933 42.2894 59.12C42.3427 60.8267 42.716 61.68 43.4094 61.68ZM44.6094 66.72C42.7427 66.72 41.0094 66.1867 39.4094 65.12C37.8094 64 36.6894 62.5067 36.0494 60.64C35.356 58.56 34.9827 56.1333 34.9294 53.36L34.8494 52.16C35.1694 45.1733 36.396 38.3467 38.5294 31.68C38.6894 31.2 38.7694 30.7467 38.7694 30.32C38.7694 29.4667 38.476 28.6667 37.8894 27.92C37.356 27.1733 37.0894 26.56 37.0894 26.08C37.0894 25.2267 37.8894 24.7733 39.4894 24.72H40.5294C44.5294 24.72 47.756 26.1067 50.2094 28.88C55.436 34.6933 58.316 41.4667 58.8494 49.2V49.84C58.8494 52.9867 57.7027 56.2133 55.4094 59.52C53.1694 62.8267 50.5027 65.0667 47.4094 66.24C46.4494 66.56 45.516 66.72 44.6094 66.72ZM75.8169 65.52C74.0035 65.52 72.2702 64.9867 70.6169 63.92C69.8169 63.3867 69.2302 62.72 68.8569 61.92L68.7769 61.36C68.7769 60.56 68.9369 60.0267 69.2569 59.76C69.6302 59.44 70.1369 59.28 70.7769 59.28C71.0969 59.28 71.3635 59.36 71.5769 59.52C72.3769 60.2667 73.2302 60.64 74.1369 60.64C74.9902 60.64 75.8435 60.4 76.6969 59.92C79.5235 58.6933 82.2969 57.28 85.0169 55.68C85.2835 55.4667 85.5235 55.1467 85.7369 54.72C85.9502 54.2933 86.0569 53.92 86.0569 53.6C86.0569 53.2267 85.7102 52.88 85.0169 52.56C84.3235 52.1867 82.4569 52 79.4169 52L76.1369 52.08C72.2435 52.08 69.1235 51.0933 66.7769 49.12C65.1235 47.7867 64.2969 46.3467 64.2969 44.8C64.2969 43.84 64.6969 42.8533 65.4969 41.84C69.0169 37.7867 72.7502 33.9467 76.6969 30.32C78.4569 28.6667 80.3235 27.2267 82.2969 26C84.3235 24.7733 86.1902 24.16 87.8969 24.16C90.0302 24.16 92.0835 25.12 94.0569 27.04C94.4302 27.36 94.7502 27.7867 95.0169 28.32C95.3369 28.8533 95.4969 29.3067 95.4969 29.68L95.4169 30C94.6702 31.44 93.5769 32.5867 92.1369 33.44L91.9769 33.52C91.7635 33.52 91.4702 33.3867 91.0969 33.12C90.7235 32.8 90.3769 32.5067 90.0569 32.24C89.7369 31.9733 89.4702 31.76 89.2569 31.6C89.0435 31.3867 88.8835 31.1733 88.7769 30.96C88.7235 30.6933 88.6435 30.4267 88.5369 30.16C81.5502 34.5333 75.7102 39.8933 71.0169 46.24C71.0702 46.56 71.1769 46.88 71.3369 47.2H74.6169C78.8835 47.2 82.4302 47.68 85.2569 48.64C87.5502 49.44 89.6035 50.9067 91.4169 53.04C92.2169 54 92.6169 54.9067 92.6169 55.76C92.6169 56.6133 92.2702 57.4667 91.5769 58.32C89.9235 60.3467 88.0035 61.84 85.8169 62.8C83.6302 63.7067 81.3369 64.4533 78.9369 65.04C77.8702 65.36 76.8302 65.52 75.8169 65.52ZM112.937 72.08C111.177 72.08 109.47 71.5733 107.817 70.56C106.217 69.5467 105.097 67.9733 104.457 65.84C103.39 61.2 102.857 56.56 102.857 51.92C102.857 49.84 102.937 47.7333 103.097 45.6L103.257 42.24L102.297 42.8L100.297 44.16C99.3902 44.8533 98.4835 45.2 97.5769 45.2C96.5102 45.2 95.5502 44.72 94.6969 43.76C94.1635 43.1733 93.8969 42.5867 93.8969 42C93.8969 41.36 94.2702 40.8 95.0169 40.32C95.7635 39.84 96.4835 39.36 97.1769 38.88C98.8302 37.8133 100.484 36.8267 102.137 35.92C103.417 35.2267 104.19 34.1867 104.457 32.8L111.097 2.88C111.31 1.28 111.95 0.479997 113.017 0.479997C113.497 0.479997 114.057 0.61333 114.697 0.879996C117.31 1.78666 118.617 2.93333 118.617 4.31999C118.617 4.74666 118.484 5.25333 118.217 5.84C116.724 9.52 115.524 13.3067 114.617 17.2C113.764 21.04 112.964 25.28 112.217 29.92C112.217 30.1867 112.244 30.3733 112.297 30.48C112.35 30.5867 112.377 30.6933 112.377 30.8L116.697 30.24C119.097 29.92 120.59 29.76 121.177 29.76C121.71 29.76 122.19 29.84 122.617 30C123.204 30.3733 123.764 30.8 124.297 31.28L125.097 32L124.377 32.56C123.844 32.9867 123.284 33.3333 122.697 33.6L118.297 35.2C116.377 35.84 114.457 36.5333 112.537 37.28C112.11 37.4933 111.684 37.84 111.257 38.32C110.884 38.8 110.67 39.28 110.617 39.76L110.217 43.84C109.79 47.4667 109.577 51.12 109.577 54.8C109.577 57.8933 109.897 61.0133 110.537 64.16C110.644 64.8 110.857 65.5467 111.177 66.4L111.417 67.2L112.457 66.64C114.217 65.7867 117.897 62.6933 123.497 57.36C124.03 56.88 124.51 56.64 124.937 56.64C125.364 56.64 125.684 56.88 125.897 57.36C126.11 57.84 126.27 58.3467 126.377 58.88C126.537 59.36 126.617 59.84 126.617 60.32C126.617 60.7467 126.537 61.12 126.377 61.44C124.084 65.3333 121.017 68.5067 117.177 70.96C115.897 71.7067 114.484 72.08 112.937 72.08ZM157.161 68.4H156.281C153.774 68.4 152.387 67.4133 152.121 65.44C151.854 62.1867 151.721 58.88 151.721 55.52C151.721 52.0533 151.987 44 152.521 31.36C152.734 23.6267 152.894 19.5467 153.001 19.12C153.054 18.9067 153.081 18.6667 153.081 18.4C153.081 16.16 153.694 15.04 154.921 15.04C155.561 15.04 156.307 15.2267 157.161 15.6C159.081 16.4 160.334 17.9467 160.921 20.24C161.881 23.0667 163.054 25.8133 164.441 28.48L175.161 50.88L175.721 51.84C175.934 51.7333 176.201 51.68 176.521 51.68V34.72C176.521 33.76 176.547 32.8267 176.601 31.92V27.04C176.601 21.1733 176.121 16.2667 175.161 12.32L175.081 11.68C175.081 10.6667 175.667 10.1333 176.841 10.08C178.601 10.08 180.041 10.56 181.161 11.52C182.334 12.4267 182.974 13.7067 183.081 15.36C183.241 21.0133 183.347 26.64 183.401 32.24C183.614 43.12 183.881 54.0267 184.201 64.96C184.201 66.6667 183.507 67.5467 182.121 67.6C181.747 67.6533 181.347 67.68 180.921 67.68C178.841 67.68 177.347 66.8533 176.441 65.2C168.867 51.3867 163.294 41.1467 159.721 34.48C159.667 35.28 159.587 36.0267 159.481 36.72C159.267 38.16 159.161 39.5733 159.161 40.96C159.214 48.9067 159.321 56.88 159.481 64.88V65.84C159.481 66.5333 159.347 67.12 159.081 67.6C158.814 68.08 158.174 68.3467 157.161 68.4ZM198.566 61.68C199.099 61.68 199.819 61.3067 200.726 60.56C205.099 57.4133 207.286 53.0667 207.286 47.52C207.286 44.7467 206.752 42.08 205.686 39.52C204.672 36.9067 203.339 34.2933 201.686 31.68C200.192 34.4533 199.179 37.2267 198.646 40C197.686 44.7467 197.206 49.0933 197.206 53.04C197.206 55.0667 197.286 57.0933 197.446 59.12C197.499 60.8267 197.872 61.68 198.566 61.68ZM199.766 66.72C197.899 66.72 196.166 66.1867 194.566 65.12C192.966 64 191.846 62.5067 191.206 60.64C190.512 58.56 190.139 56.1333 190.086 53.36L190.006 52.16C190.326 45.1733 191.552 38.3467 193.686 31.68C193.846 31.2 193.926 30.7467 193.926 30.32C193.926 29.4667 193.632 28.6667 193.046 27.92C192.512 27.1733 192.246 26.56 192.246 26.08C192.246 25.2267 193.046 24.7733 194.646 24.72H195.686C199.686 24.72 202.912 26.1067 205.366 28.88C210.592 34.6933 213.472 41.4667 214.006 49.2V49.84C214.006 52.9867 212.859 56.2133 210.566 59.52C208.326 62.8267 205.659 65.0667 202.566 66.24C201.606 66.56 200.672 66.72 199.766 66.72ZM234.499 72.08C232.739 72.08 231.033 71.5733 229.379 70.56C227.779 69.5467 226.659 67.9733 226.019 65.84C224.953 61.2 224.419 56.56 224.419 51.92C224.419 49.84 224.499 47.7333 224.659 45.6L224.819 42.24L223.859 42.8L221.859 44.16C220.953 44.8533 220.046 45.2 219.139 45.2C218.073 45.2 217.113 44.72 216.259 43.76C215.726 43.1733 215.459 42.5867 215.459 42C215.459 41.36 215.833 40.8 216.579 40.32C217.326 39.84 218.046 39.36 218.739 38.88C220.393 37.8133 222.046 36.8267 223.699 35.92C224.979 35.2267 225.753 34.1867 226.019 32.8L232.659 2.88C232.873 1.28 233.513 0.479997 234.579 0.479997C235.059 0.479997 235.619 0.61333 236.259 0.879996C238.873 1.78666 240.179 2.93333 240.179 4.31999C240.179 4.74666 240.046 5.25333 239.779 5.84C238.286 9.52 237.086 13.3067 236.179 17.2C235.326 21.04 234.526 25.28 233.779 29.92C233.779 30.1867 233.806 30.3733 233.859 30.48C233.913 30.5867 233.939 30.6933 233.939 30.8L238.259 30.24C240.659 29.92 242.153 29.76 242.739 29.76C243.273 29.76 243.753 29.84 244.179 30C244.766 30.3733 245.326 30.8 245.859 31.28L246.659 32L245.939 32.56C245.406 32.9867 244.846 33.3333 244.259 33.6L239.859 35.2C237.939 35.84 236.019 36.5333 234.099 37.28C233.673 37.4933 233.246 37.84 232.819 38.32C232.446 38.8 232.233 39.28 232.179 39.76L231.779 43.84C231.353 47.4667 231.139 51.12 231.139 54.8C231.139 57.8933 231.459 61.0133 232.099 64.16C232.206 64.8 232.419 65.5467 232.739 66.4L232.979 67.2L234.019 66.64C235.779 65.7867 239.459 62.6933 245.059 57.36C245.593 56.88 246.073 56.64 246.499 56.64C246.926 56.64 247.246 56.88 247.459 57.36C247.673 57.84 247.833 58.3467 247.939 58.88C248.099 59.36 248.179 59.84 248.179 60.32C248.179 60.7467 248.099 61.12 247.939 61.44C245.646 65.3333 242.579 68.5067 238.739 70.96C237.459 71.7067 236.046 72.08 234.499 72.08ZM262.058 42.48C265.311 41.5733 267.951 40.1333 269.978 38.16C272.004 36.1867 273.018 34.1867 273.018 32.16C273.018 31.4667 272.858 30.7733 272.538 30.08C270.351 31.2 268.538 32.6933 267.098 34.56C265.711 36.3733 264.431 38.3467 263.258 40.48L262.058 42.48ZM266.618 67.6C263.151 67.6 259.978 66.5867 257.098 64.56C254.218 62.5333 252.484 59.7333 251.898 56.16C251.791 55.5733 251.738 54.9867 251.738 54.4L251.818 51.36C251.818 50.4 251.711 49.4133 251.498 48.4C251.338 47.7067 251.258 47.0667 251.258 46.48C251.258 45.4133 251.844 44.5333 253.018 43.84C253.818 43.4133 254.484 42.8 255.018 42C256.991 38.48 259.098 35.0667 261.338 31.76C261.764 31.1733 262.191 30.56 262.618 29.92C263.098 29.2267 263.658 28.56 264.298 27.92C266.218 26.1067 268.164 25.2 270.138 25.2C271.898 25.2 273.711 25.92 275.578 27.36C277.604 29.1733 278.618 31.3333 278.618 33.84C278.618 35.3333 278.244 36.8 277.498 38.24C276.324 40.2133 274.858 41.8133 273.098 43.04C269.791 45.2267 266.698 46.72 263.818 47.52C259.978 48.6933 258.058 51.2533 258.058 55.2C258.058 55.84 258.111 56.5333 258.218 57.28C258.964 61.2267 261.391 63.28 265.498 63.44H266.858V63.2C269.951 63.6267 271.738 64.1067 272.218 64.64C272.431 64.9067 272.538 65.1467 272.538 65.36C272.484 65.7333 272.298 66.08 271.978 66.4C271.711 66.6667 271.444 66.8533 271.178 66.96C269.684 67.3867 268.164 67.6 266.618 67.6ZM290.661 65.52C288.847 65.52 287.114 64.9867 285.461 63.92C284.661 63.3867 284.074 62.72 283.701 61.92L283.621 61.36C283.621 60.56 283.781 60.0267 284.101 59.76C284.474 59.44 284.981 59.28 285.621 59.28C285.941 59.28 286.207 59.36 286.421 59.52C287.221 60.2667 288.074 60.64 288.981 60.64C289.834 60.64 290.687 60.4 291.541 59.92C294.367 58.6933 297.141 57.28 299.861 55.68C300.127 55.4667 300.367 55.1467 300.581 54.72C300.794 54.2933 300.901 53.92 300.901 53.6C300.901 53.2267 300.554 52.88 299.861 52.56C299.167 52.1867 297.301 52 294.261 52L290.981 52.08C287.087 52.08 283.967 51.0933 281.621 49.12C279.967 47.7867 279.141 46.3467 279.141 44.8C279.141 43.84 279.541 42.8533 280.341 41.84C283.861 37.7867 287.594 33.9467 291.541 30.32C293.301 28.6667 295.167 27.2267 297.141 26C299.167 24.7733 301.034 24.16 302.741 24.16C304.874 24.16 306.927 25.12 308.901 27.04C309.274 27.36 309.594 27.7867 309.861 28.32C310.181 28.8533 310.341 29.3067 310.341 29.68L310.261 30C309.514 31.44 308.421 32.5867 306.981 33.44L306.821 33.52C306.607 33.52 306.314 33.3867 305.941 33.12C305.567 32.8 305.221 32.5067 304.901 32.24C304.581 31.9733 304.314 31.76 304.101 31.6C303.887 31.3867 303.727 31.1733 303.621 30.96C303.567 30.6933 303.487 30.4267 303.381 30.16C296.394 34.5333 290.554 39.8933 285.861 46.24C285.914 46.56 286.021 46.88 286.181 47.2H289.461C293.727 47.2 297.274 47.68 300.101 48.64C302.394 49.44 304.447 50.9067 306.261 53.04C307.061 54 307.461 54.9067 307.461 55.76C307.461 56.6133 307.114 57.4667 306.421 58.32C304.767 60.3467 302.847 61.84 300.661 62.8C298.474 63.7067 296.181 64.4533 293.781 65.04C292.714 65.36 291.674 65.52 290.661 65.52Z" fill="#FFC470"/>
<path d="M8.48 40.16L5.49036 39.9109L5.09088 44.7046L9.57155 42.9544L8.48 40.16ZM18.96 34.16L20.7543 36.5643L20.7657 36.5558L20.7771 36.5471L18.96 34.16ZM27.04 26.16L29.5048 27.8702L29.5269 27.8384L29.5481 27.806L27.04 26.16ZM29.6 20.64L32.4756 21.4949L32.4833 21.469L32.4906 21.4429L29.6 20.64ZM24.08 14.72L23.6557 11.7502L23.6023 11.7578L23.5492 11.7673L24.08 14.72ZM11.68 21.04L13.6869 23.2699L13.7196 23.2404L13.7514 23.2101L11.68 21.04ZM9.84 24.32L6.8652 23.932L6.85875 23.9814L6.85395 24.031L9.84 24.32ZM8.96 34.4L11.9496 34.6491L11.9503 34.6414L11.9509 34.6337L8.96 34.4ZM8.8 80.8V83.8H8.89083L8.98149 83.7945L8.8 80.8ZM5.76 79.84L4.02995 82.2909L4.06262 82.314L4.0959 82.3362L5.76 79.84ZM4.24 77.6H1.24V77.7868L1.26317 77.9721L4.24 77.6ZM4.24 74.24V71.24H1.24V74.24H4.24ZM4.32 74.24V77.24H7.57669L7.30992 73.9943L4.32 74.24ZM3.84 68.4L6.82992 68.1543L6.8288 68.1406L6.82756 68.127L3.84 68.4ZM1.84 40.08L-1.15809 40.1871L-1.15761 40.2004L-1.15702 40.2136L1.84 40.08ZM1.44 31.2L4.43555 31.0366L4.43417 31.0114L4.43238 30.9863L1.44 31.2ZM0.96 29.12L-1.90734 30.0023L-1.86483 30.1404L-1.80923 30.2738L0.96 29.12ZM0.48 27.04L3.44512 26.5838L3.43491 26.5175L3.42174 26.4516L0.48 27.04ZM0.4 26.64L-2.55918 27.1332L-2.55123 27.1809L-2.54174 27.2283L0.4 26.64ZM2.08 18.72L4.5309 20.45L4.57941 20.3813L4.62399 20.31L2.08 18.72ZM2.72 17.6L0.223852 15.9359L0.120245 16.0913L0.0367149 16.2584L2.72 17.6ZM3.68 16.8L2.3604 14.1058L2.34936 14.1112L2.33836 14.1167L3.68 16.8ZM7.6 14.88L8.9196 17.5742L8.93064 17.5688L8.94164 17.5633L7.6 14.88ZM15.28 11.2L14.0512 8.46319L14.0406 8.46795L14.03 8.4728L15.28 11.2ZM32.32 12.96L34.2318 10.6481L34.193 10.616L34.1532 10.5852L32.32 12.96ZM35.36 25.6L38.0433 26.9416L38.0777 26.8729L38.1085 26.8025L35.36 25.6ZM23.2 39.12L21.5894 36.589L21.5827 36.5933L21.576 36.5976L23.2 39.12ZM11.2 46.08L12.5416 48.7633L12.5624 48.7529L12.583 48.7422L11.2 46.08ZM9.76 47.2L12.0378 49.1524L12.1014 49.0782L12.16 49L9.76 47.2ZM9.28 49.28H6.28V49.4156L6.29224 49.5507L9.28 49.28ZM9.57155 42.9544C13.2828 41.5047 17.0101 39.3585 20.7543 36.5643L17.1657 31.7557C13.7633 34.2949 10.5039 36.1487 7.38845 37.3656L9.57155 42.9544ZM20.7771 36.5471C24.506 33.7086 27.4553 30.8238 29.5048 27.8702L24.5752 24.4498C22.998 26.7228 20.5606 29.1714 17.1429 31.7729L20.7771 36.5471ZM29.5481 27.806C30.8299 25.8528 31.8064 23.746 32.4756 21.4949L26.7244 19.7851C26.2203 21.4807 25.4901 23.0538 24.5319 24.514L29.5481 27.806ZM32.4906 21.4429C32.8072 20.3028 33 19.1712 33 18.08H27C27 18.4821 26.9261 19.0572 26.7094 19.8371L32.4906 21.4429ZM33 18.08C33 16.3558 32.5051 14.5375 31.0244 13.2079C29.605 11.9333 27.7742 11.56 26.08 11.56V17.56C26.9992 17.56 27.1283 17.7733 27.0156 17.6721C26.9559 17.6185 26.9363 17.5674 26.9425 17.584C26.9552 17.6181 27 17.7641 27 18.08H33ZM26.08 11.56C25.318 11.56 24.5055 11.6288 23.6557 11.7502L24.5043 17.6898C25.1479 17.5979 25.6687 17.56 26.08 17.56V11.56ZM23.5492 11.7673C18.2178 12.7258 13.5502 15.1075 9.60857 18.8699L13.7514 23.2101C16.8498 20.2525 20.4489 18.4209 24.6108 17.6727L23.5492 11.7673ZM9.67311 18.8101C8.16443 20.1679 7.13232 21.884 6.8652 23.932L12.8148 24.708C12.8677 24.3026 13.0622 23.8321 13.6869 23.2699L9.67311 18.8101ZM6.85395 24.031C6.53211 27.3567 6.23718 30.7351 5.96911 34.1663L11.9509 34.6337C12.2162 31.2382 12.5079 27.8967 12.8261 24.609L6.85395 24.031ZM5.97036 34.1509L5.49036 39.9109L11.4696 40.4091L11.9496 34.6491L5.97036 34.1509ZM8.8 77.8C8.37427 77.8 7.93341 77.6834 7.4241 77.3438L4.0959 82.3362C5.50659 83.2766 7.09239 83.8 8.8 83.8V77.8ZM7.49005 77.3891C7.26606 77.231 7.1925 77.1303 7.18243 77.1155C7.17827 77.1094 7.18618 77.1199 7.19624 77.1462C7.20652 77.173 7.2136 77.202 7.21683 77.2279L1.26317 77.9721C1.50293 79.8902 2.64623 81.3142 4.02995 82.2909L7.49005 77.3891ZM7.24 77.6V74.24H1.24V77.6H7.24ZM4.24 77.24H4.32V71.24H4.24V77.24ZM7.30992 73.9943L6.82992 68.1543L0.850082 68.6457L1.33008 74.4857L7.30992 73.9943ZM6.82756 68.127C5.87077 57.6555 5.20783 48.2631 4.83702 39.9464L-1.15702 40.2136C-0.781167 48.6435 -0.110765 58.1312 0.852445 68.673L6.82756 68.127ZM4.83809 39.9729C4.73076 36.9678 4.59659 33.989 4.43555 31.0366L-1.55555 31.3634C-1.39659 34.2776 -1.2641 37.2189 -1.15809 40.1871L4.83809 39.9729ZM4.43238 30.9863C4.35778 29.942 4.13014 28.9283 3.72923 27.9662L-1.80923 30.2738C-1.67681 30.5917 -1.58445 30.9647 -1.55238 31.4137L4.43238 30.9863ZM3.82734 28.2377C3.65546 27.6791 3.52885 27.1281 3.44512 26.5838L-2.48512 27.4962C-2.35552 28.3385 -2.16212 29.1742 -1.90734 30.0023L3.82734 28.2377ZM3.42174 26.4516L3.34174 26.0516L-2.54174 27.2283L-2.46174 27.6283L3.42174 26.4516ZM3.35918 26.1468C3.22438 25.338 3.16 24.5699 3.16 23.84H-2.84C-2.84 24.9235 -2.74438 26.022 -2.55918 27.1332L3.35918 26.1468ZM3.16 23.84C3.16 23.0578 3.47367 21.9478 4.5309 20.45L-0.370904 16.9899C-1.87367 19.1189 -2.84 21.4222 -2.84 23.84H3.16ZM4.62399 20.31C4.92253 19.8323 5.18766 19.3729 5.40329 18.9416L0.0367149 16.2584C-0.0676566 16.4671 -0.229196 16.7543 -0.463991 17.13L4.62399 20.31ZM5.21615 19.2641C5.07801 19.4713 4.95086 19.5187 5.02164 19.4833L2.33836 14.1167C1.5558 14.508 0.788655 15.0887 0.223852 15.9359L5.21615 19.2641ZM4.9996 19.4942L8.9196 17.5742L6.2804 12.1858L2.3604 14.1058L4.9996 19.4942ZM8.94164 17.5633C11.4718 16.2982 14.0013 15.0862 16.53 13.9272L14.03 8.4728C11.4387 9.66048 8.84817 10.9018 6.25836 12.1967L8.94164 17.5633ZM16.5088 13.9368C18.7999 12.9081 20.9154 12.44 22.88 12.44V6.44C19.938 6.44 16.9868 7.14519 14.0512 8.46319L16.5088 13.9368ZM22.88 12.44C25.3557 12.44 27.8737 13.3176 30.4868 15.3348L34.1532 10.5852C30.6863 7.90908 26.911 6.44 22.88 6.44V12.44ZM30.4082 15.2719C32.6798 17.1504 33.48 18.9521 33.48 20.72H39.48C39.48 16.7279 37.5068 13.3563 34.2318 10.6481L30.4082 15.2719ZM33.48 20.72C33.48 21.7772 33.2255 22.9941 32.6115 24.3975L38.1085 26.8025C38.9878 24.7926 39.48 22.7561 39.48 20.72H33.48ZM32.6767 24.2584C30.0907 29.4305 26.4059 33.524 21.5894 36.589L24.8106 41.651C30.5541 37.996 34.976 33.0762 38.0433 26.9416L32.6767 24.2584ZM21.576 36.5976C17.7607 39.054 13.8412 41.3273 9.81703 43.4178L12.583 48.7422C16.7722 46.566 20.8526 44.1994 24.824 41.6424L21.576 36.5976ZM9.85836 43.3967C8.93755 43.8571 8.03813 44.4958 7.36 45.4L12.16 49C12.1219 49.0508 12.1824 48.9429 12.5416 48.7633L9.85836 43.3967ZM7.48223 45.2476C6.53665 46.3508 6.28 47.6812 6.28 48.8H12.28C12.28 48.677 12.295 48.6704 12.2735 48.742C12.2491 48.8233 12.1841 48.9816 12.0378 49.1524L7.48223 45.2476ZM6.28 48.8V49.28H12.28V48.8H6.28ZM6.29224 49.5507C7.74117 65.5427 8.44 74.3889 8.44 76.4H14.44C14.44 74.0377 13.6988 64.804 12.2678 49.0093L6.29224 49.5507ZM8.44 76.4V77.84H14.44V76.4H8.44ZM8.44 77.84C8.44 78.0785 8.41104 78.1818 8.40824 78.1909C8.40763 78.1929 8.4147 78.1694 8.43673 78.1291C8.45926 78.088 8.49332 78.0367 8.54111 77.9832C8.58911 77.9293 8.64159 77.8836 8.69337 77.8476C8.74448 77.8119 8.78531 77.7923 8.80712 77.7833C8.84702 77.7668 8.80107 77.7944 8.61851 77.8055L8.98149 83.7945C10.3799 83.7098 11.8944 83.2377 13.0189 81.9768C14.1184 80.7441 14.44 79.208 14.44 77.84H8.44ZM45.5694 60.56L43.8172 58.1248L43.7378 58.182L43.6623 58.2442L45.5694 60.56ZM50.5294 39.52L47.7323 40.6046L47.7458 40.6394L47.7601 40.6738L50.5294 39.52ZM46.5294 31.68L49.0646 30.0761L46.3209 25.7393L43.888 30.2577L46.5294 31.68ZM43.4894 40L46.4298 40.5947L46.4327 40.5806L46.4354 40.5665L43.4894 40ZM42.2894 59.12L45.2879 59.0263L45.2857 58.955L45.2801 58.8839L42.2894 59.12ZM39.4094 65.12L37.689 67.5777L37.7169 67.5972L37.7453 67.6162L39.4094 65.12ZM36.0494 60.64L33.2033 61.5887L33.2074 61.6008L33.2115 61.613L36.0494 60.64ZM34.9294 53.36L37.9288 53.3023L37.9275 53.2313L37.9227 53.1604L34.9294 53.36ZM34.8494 52.16L31.8525 52.0227L31.8448 52.1912L31.856 52.3596L34.8494 52.16ZM38.5294 31.68L35.6833 30.7313L35.6776 30.7485L35.6721 30.7657L38.5294 31.68ZM37.8894 27.92L35.4482 29.6637L35.488 29.7195L35.5304 29.7735L37.8894 27.92ZM39.4894 24.72V21.72H39.4394L39.3894 21.7217L39.4894 24.72ZM50.2094 28.88L47.9624 30.8677L47.9704 30.8768L47.9785 30.8858L50.2094 28.88ZM58.8494 49.2H61.8494V49.0967L61.8423 48.9936L58.8494 49.2ZM55.4094 59.52L52.9442 57.8103L52.9349 57.8238L52.9256 57.8375L55.4094 59.52ZM47.4094 66.24L48.3581 69.086L48.4161 69.0667L48.4733 69.045L47.4094 66.24ZM43.4094 64.68C44.3424 64.68 45.1465 64.366 45.7303 64.0633C46.3402 63.747 46.926 63.3291 47.4765 62.8758L43.6623 58.2442C43.3061 58.5375 43.0786 58.6796 42.9684 58.7367C42.918 58.7629 42.9265 58.7532 42.9879 58.7348C43.049 58.7167 43.1959 58.68 43.4094 58.68V64.68ZM47.3215 62.9952C52.5053 59.2654 55.1294 53.9981 55.1294 47.52H49.1294C49.1294 52.1352 47.3801 55.5613 43.8172 58.1248L47.3215 62.9952ZM55.1294 47.52C55.1294 44.3506 54.5176 41.2918 53.2986 38.3662L47.7601 40.6738C48.6745 42.8682 49.1294 45.1427 49.1294 47.52H55.1294ZM53.3265 38.4354C52.2361 35.6234 50.8113 32.837 49.0646 30.0761L43.9941 33.2839C45.5541 35.7497 46.796 38.1899 47.7323 40.6046L53.3265 38.4354ZM43.888 30.2577C42.2667 33.2686 41.1404 36.3288 40.5434 39.4335L46.4354 40.5665C46.905 38.1245 47.8054 35.6381 49.1708 33.1023L43.888 30.2577ZM40.5489 39.4053C39.5579 44.3055 39.0494 48.8547 39.0494 53.04H45.0494C45.0494 49.332 45.5009 45.1879 46.4298 40.5947L40.5489 39.4053ZM39.0494 53.04C39.0494 55.1457 39.1325 57.2511 39.2987 59.3561L45.2801 58.8839C45.1263 56.9355 45.0494 54.9876 45.0494 53.04H39.0494ZM39.2908 59.2137C39.3212 60.1846 39.4421 61.2852 39.8609 62.2425C40.3292 63.3128 41.4482 64.68 43.4094 64.68V58.68C43.9061 58.68 44.4162 58.8516 44.8235 59.1774C45.1823 59.4644 45.3238 59.7598 45.3578 59.8375C45.394 59.9202 45.3758 59.9104 45.3486 59.7468C45.3229 59.5926 45.2983 59.3582 45.2879 59.0263L39.2908 59.2137ZM44.6094 63.72C43.3536 63.72 42.1964 63.3725 41.0735 62.6238L37.7453 67.6162C39.8223 69.0008 42.1318 69.72 44.6094 69.72V63.72ZM41.1298 62.6623C40.0558 61.9105 39.3236 60.9397 38.8872 59.667L33.2115 61.613C34.0552 64.0736 35.563 66.0895 37.689 67.5777L41.1298 62.6623ZM38.8954 59.6913C38.3194 57.9633 37.9778 55.849 37.9288 53.3023L31.9299 53.4177C31.9876 56.4177 32.3927 59.1567 33.2033 61.5887L38.8954 59.6913ZM37.9227 53.1604L37.8427 51.9604L31.856 52.3596L31.936 53.5596L37.9227 53.1604ZM37.8462 52.2973C38.1541 45.5749 39.3338 39.0095 41.3866 32.5943L35.6721 30.7657C33.4583 37.6839 32.1846 44.7718 31.8525 52.0227L37.8462 52.2973ZM41.3754 32.6287C41.619 31.8981 41.7694 31.1226 41.7694 30.32H35.7694C35.7694 30.3707 35.7598 30.5019 35.6833 30.7313L41.3754 32.6287ZM41.7694 30.32C41.7694 28.7184 41.2007 27.2787 40.2483 26.0665L35.5304 29.7735C35.7513 30.0546 35.7694 30.2149 35.7694 30.32H41.7694ZM40.3306 26.1763C40.2406 26.0504 40.1738 25.9465 40.1252 25.8639C40.0762 25.7807 40.0511 25.7279 40.0406 25.7038C40.0298 25.679 40.04 25.6971 40.0539 25.7541C40.0679 25.8114 40.0894 25.9236 40.0894 26.08H34.0894C34.0894 27.5391 34.8332 28.8028 35.4482 29.6637L40.3306 26.1763ZM40.0894 26.08C40.0894 26.3547 40.0187 26.7209 39.7979 27.0815C39.5839 27.431 39.3225 27.6228 39.1684 27.7101C39.0279 27.7897 38.9665 27.7898 39.059 27.7703C39.1454 27.7521 39.3144 27.7275 39.5893 27.7183L39.3894 21.7217C38.4151 21.7541 37.2375 21.9078 36.2103 22.4899C34.9596 23.1987 34.0894 24.4741 34.0894 26.08H40.0894ZM39.4894 27.72H40.5294V21.72H39.4894V27.72ZM40.5294 27.72C43.7477 27.72 46.128 28.7941 47.9624 30.8677L52.4564 26.8923C49.384 23.4192 45.3111 21.72 40.5294 21.72V27.72ZM47.9785 30.8858C52.7616 36.2057 55.3696 42.3472 55.8565 49.4064L61.8423 48.9936C61.2624 40.5861 58.1105 33.1809 52.4403 26.8742L47.9785 30.8858ZM55.8494 49.2V49.84H61.8494V49.2H55.8494ZM55.8494 49.84C55.8494 52.2251 54.9863 54.866 52.9442 57.8103L57.8745 61.2297C60.4191 57.5607 61.8494 53.7483 61.8494 49.84H55.8494ZM52.9256 57.8375C50.9589 60.7407 48.7502 62.5228 46.3454 63.435L48.4733 69.045C52.2552 67.6105 55.3798 64.9126 57.8931 61.2025L52.9256 57.8375ZM46.4607 63.3939C45.7714 63.6237 45.1585 63.72 44.6094 63.72V69.72C45.8736 69.72 47.1273 69.4963 48.3581 69.086L46.4607 63.3939ZM70.6169 63.92L68.9528 66.4162L68.9715 66.4287L68.9905 66.4409L70.6169 63.92ZM68.8569 61.92L65.887 62.3443L65.95 62.7851L66.1383 63.1887L68.8569 61.92ZM68.7769 61.36H65.7769V61.5732L65.807 61.7843L68.7769 61.36ZM69.2569 59.76L71.1774 62.0647L71.1934 62.0513L71.2092 62.0378L69.2569 59.76ZM71.5769 59.52L73.6238 57.3268L73.5059 57.2168L73.3769 57.12L71.5769 59.52ZM76.6969 59.92L75.5026 57.168L75.3608 57.2295L75.2261 57.3053L76.6969 59.92ZM85.0169 55.68L86.5379 58.2658L86.7232 58.1568L86.891 58.0226L85.0169 55.68ZM85.0169 52.56L83.5946 55.2014L83.6759 55.2452L83.7597 55.2839L85.0169 52.56ZM79.4169 52V49H79.3803L79.3437 49.0009L79.4169 52ZM76.1369 52.08V55.08H76.1735L76.21 55.0791L76.1369 52.08ZM66.7769 49.12L68.7077 46.8239L68.6841 46.8041L68.6601 46.7848L66.7769 49.12ZM65.4969 41.84L63.2318 39.8729L63.1857 39.926L63.1422 39.9811L65.4969 41.84ZM76.6969 30.32L78.7268 32.529L78.7389 32.5178L78.7509 32.5065L76.6969 30.32ZM82.2969 26L80.7435 23.4335L80.7282 23.4427L80.7131 23.4521L82.2969 26ZM94.0569 27.04L91.9648 29.1902L92.0326 29.2562L92.1045 29.3178L94.0569 27.04ZM95.0169 28.32L92.3336 29.6616L92.3851 29.7647L92.4444 29.8635L95.0169 28.32ZM95.4969 29.68L98.4073 30.4076L98.4969 30.0493V29.68H95.4969ZM95.4169 30L98.0801 31.3809L98.242 31.0688L98.3273 30.7276L95.4169 30ZM92.1369 33.44L93.4785 36.1233L93.5742 36.0754L93.6663 36.0209L92.1369 33.44ZM91.9769 33.52V36.52H92.6851L93.3185 36.2033L91.9769 33.52ZM91.0969 33.12L89.1445 35.3978L89.2452 35.4841L89.3532 35.5612L91.0969 33.12ZM90.0569 32.24L91.9774 29.9353L91.9774 29.9353L90.0569 32.24ZM89.2569 31.6L87.1355 33.7213L87.2863 33.8721L87.4569 34L89.2569 31.6ZM88.7769 30.96L85.8351 31.5484L85.9139 31.9423L86.0936 32.3016L88.7769 30.96ZM88.5369 30.16L91.3223 29.0458L89.9887 25.7119L86.9451 27.6171L88.5369 30.16ZM71.0169 46.24L68.6048 44.4563L67.8486 45.4788L68.0577 46.7332L71.0169 46.24ZM71.3369 47.2L68.6536 48.5416L69.4828 50.2H71.3369V47.2ZM85.2569 48.64L86.245 45.8074L86.2333 45.8033L86.2216 45.7994L85.2569 48.64ZM91.4169 53.04L93.7215 51.1194L93.7122 51.1082L93.7027 51.0971L91.4169 53.04ZM91.5769 58.32L93.9015 60.2164L93.9052 60.2118L91.5769 58.32ZM85.8169 62.8L86.9659 65.5712L86.9945 65.5594L87.0228 65.5469L85.8169 62.8ZM78.9369 65.04L78.2245 62.1258L78.1491 62.1442L78.0748 62.1665L78.9369 65.04ZM75.8169 62.52C74.6295 62.52 73.4548 62.1807 72.2433 61.3991L68.9905 66.4409C71.0856 67.7926 73.3775 68.52 75.8169 68.52V62.52ZM72.281 61.4238C71.8961 61.1673 71.6958 60.9093 71.5754 60.6513L66.1383 63.1887C66.7646 64.5307 67.7377 65.6061 68.9528 66.4162L72.281 61.4238ZM71.8267 61.4957L71.7467 60.9357L65.807 61.7843L65.887 62.3443L71.8267 61.4957ZM71.7769 61.36C71.7769 61.1361 71.8021 61.1163 71.7704 61.222C71.7369 61.3335 71.5988 61.7135 71.1774 62.0647L67.3363 57.4553C65.9144 58.6402 65.7769 60.4159 65.7769 61.36H71.7769ZM71.2092 62.0378C71.0651 62.1614 70.9209 62.229 70.8203 62.2607C70.7287 62.2897 70.7028 62.28 70.7769 62.28V56.28C69.6407 56.28 68.3681 56.5706 67.3045 57.4822L71.2092 62.0378ZM70.7769 62.28C70.5813 62.28 70.1804 62.2226 69.7769 61.92L73.3769 57.12C72.5467 56.4974 71.6125 56.28 70.7769 56.28V62.28ZM69.5299 61.7132C70.7639 62.8649 72.319 63.64 74.1369 63.64V57.64C74.1089 57.64 74.0774 57.637 74.0193 57.6115C73.9526 57.5823 73.8182 57.5082 73.6238 57.3268L69.5299 61.7132ZM74.1369 63.64C75.5772 63.64 76.9323 63.2296 78.1677 62.5347L75.2261 57.3053C74.7548 57.5704 74.4032 57.64 74.1369 57.64V63.64ZM77.8912 62.672C80.8327 61.3955 83.715 59.9263 86.5379 58.2658L83.4958 53.0942C80.8787 54.6337 78.2144 55.9912 75.5026 57.168L77.8912 62.672ZM86.891 58.0226C87.6032 57.4528 88.0848 56.7324 88.4202 56.0616L83.0536 53.3784C83.0126 53.4604 82.9906 53.4883 82.9969 53.48C83.0034 53.4713 83.0484 53.4129 83.1428 53.3374L86.891 58.0226ZM88.4202 56.0616C88.748 55.406 89.0569 54.5579 89.0569 53.6H83.0569C83.0569 53.4294 83.0848 53.3222 83.0923 53.2958C83.0999 53.2692 83.0953 53.2949 83.0536 53.3784L88.4202 56.0616ZM89.0569 53.6C89.0569 52.3916 88.4711 51.4916 87.9182 50.9387C87.3951 50.4156 86.7831 50.0711 86.274 49.8361L83.7597 55.2839C83.944 55.3689 83.8519 55.3577 83.6756 55.1813C83.4693 54.9751 83.0569 54.435 83.0569 53.6H89.0569ZM86.4392 49.9186C85.5117 49.4192 84.3247 49.2478 83.3954 49.1549C82.3214 49.0475 80.9837 49 79.4169 49V55C80.8901 55 82.0057 55.0458 82.7984 55.1251C83.1945 55.1647 83.4655 55.2085 83.6358 55.2457C83.8381 55.29 83.7756 55.2989 83.5946 55.2014L86.4392 49.9186ZM79.3437 49.0009L76.0637 49.0809L76.21 55.0791L79.49 54.9991L79.3437 49.0009ZM76.1369 49.08C72.7547 49.08 70.381 48.231 68.7077 46.8239L64.8461 51.4161C67.8661 53.9556 71.7324 55.08 76.1369 55.08V49.08ZM68.6601 46.7848C67.4338 45.7958 67.2969 45.133 67.2969 44.8H61.2969C61.2969 47.5603 62.8133 49.7775 64.8936 51.4552L68.6601 46.7848ZM67.2969 44.8C67.2969 44.7146 67.3259 44.3647 67.8515 43.6989L63.1422 39.9811C62.0678 41.342 61.2969 42.9654 61.2969 44.8H67.2969ZM67.762 43.8071C71.2083 39.8386 74.8631 36.0794 78.7268 32.529L74.667 28.111C70.6373 31.814 66.8255 35.7347 63.2318 39.8729L67.762 43.8071ZM78.7509 32.5065C80.3721 30.9836 82.0821 29.6659 83.8807 28.5479L80.7131 23.4521C78.565 24.7874 76.5416 26.3498 74.6428 28.1335L78.7509 32.5065ZM83.8503 28.5665C85.5824 27.5181 86.9107 27.16 87.8969 27.16V21.16C85.4697 21.16 83.0646 22.0286 80.7435 23.4335L83.8503 28.5665ZM87.8969 27.16C89.0407 27.16 90.3822 27.6503 91.9648 29.1902L96.1489 24.8898C93.7849 22.5897 91.0197 21.16 87.8969 21.16V27.16ZM92.1045 29.3178C92.117 29.3285 92.2086 29.4117 92.3336 29.6616L97.7002 26.9784C97.2918 26.1616 96.7434 25.3915 96.0092 24.7622L92.1045 29.3178ZM92.4444 29.8635C92.4851 29.9314 92.5122 29.9825 92.5292 30.0174C92.5463 30.0526 92.5505 30.0659 92.5479 30.0585C92.5454 30.0513 92.5333 30.0159 92.5215 29.9551C92.5097 29.8939 92.4969 29.8004 92.4969 29.68H98.4969C98.4969 28.5122 98.0233 27.4998 97.5894 26.7765L92.4444 29.8635ZM92.5864 28.9524L92.5064 29.2724L98.3273 30.7276L98.4073 30.4076L92.5864 28.9524ZM92.7536 28.619C92.2738 29.5444 91.581 30.2822 90.6075 30.8591L93.6663 36.0209C95.5728 34.8911 97.0666 33.3356 98.0801 31.3809L92.7536 28.619ZM90.7953 30.7567L90.6353 30.8367L93.3185 36.2033L93.4785 36.1233L90.7953 30.7567ZM91.9769 30.52C92.2319 30.52 92.4338 30.5591 92.5654 30.5938C92.6981 30.6287 92.791 30.6674 92.8383 30.6889C92.9247 30.7282 92.93 30.7426 92.8406 30.6788L89.3532 35.5612C89.7657 35.8559 90.7389 36.52 91.9769 36.52V30.52ZM93.0493 30.8422C92.6672 30.5147 92.3098 30.2123 91.9774 29.9353L88.1363 34.5447C88.444 34.801 88.7799 35.0852 89.1445 35.3978L93.0493 30.8422ZM91.9774 29.9353C91.6372 29.6518 91.3272 29.4028 91.0569 29.2L87.4569 34C87.6132 34.1172 87.8365 34.2948 88.1363 34.5447L91.9774 29.9353ZM91.3782 29.4787C91.3591 29.4596 91.3615 29.4595 91.3769 29.48C91.3924 29.5007 91.4242 29.5465 91.4602 29.6184L86.0936 32.3016C86.3768 32.8681 86.7518 33.3375 87.1355 33.7213L91.3782 29.4787ZM91.7186 30.3716C91.6274 29.9156 91.4932 29.4731 91.3223 29.0458L85.7514 31.2742C85.7938 31.3802 85.8197 31.4711 85.8351 31.5484L91.7186 30.3716ZM86.9451 27.6171C79.6542 32.1809 73.5314 37.7941 68.6048 44.4563L73.429 48.0237C77.889 41.9926 83.4462 36.8858 90.1286 32.7029L86.9451 27.6171ZM68.0577 46.7332C68.165 47.3768 68.3735 47.9814 68.6536 48.5416L74.0202 45.8584C73.9998 45.8177 73.9888 45.7888 73.9829 45.7713C73.98 45.7625 73.9783 45.7562 73.9773 45.7524C73.9768 45.7504 73.9765 45.749 73.9763 45.7481C73.9761 45.7472 73.9761 45.7468 73.9761 45.7468L68.0577 46.7332ZM71.3369 50.2H74.6169V44.2H71.3369V50.2ZM74.6169 50.2C78.6841 50.2 81.8783 50.6608 84.2921 51.4806L86.2216 45.7994C82.9821 44.6992 79.0829 44.2 74.6169 44.2V50.2ZM84.2688 51.4726C85.9853 52.0714 87.6099 53.1933 89.1311 54.9829L93.7027 51.0971C91.5972 48.62 89.1151 46.8086 86.245 45.8074L84.2688 51.4726ZM89.1122 54.9606C89.6658 55.6248 89.6169 55.8708 89.6169 55.76H95.6169C95.6169 53.9425 94.768 52.3752 93.7215 51.1194L89.1122 54.9606ZM89.6169 55.76C89.6169 55.7698 89.6168 55.8141 89.5775 55.9109C89.5351 56.0152 89.443 56.1888 89.2485 56.4282L93.9052 60.2118C94.9058 58.9803 95.6169 57.4802 95.6169 55.76H89.6169ZM89.2523 56.4236C87.8701 58.1179 86.3223 59.3017 84.6109 60.0531L87.0228 65.5469C89.6848 64.3783 91.977 62.5754 93.9015 60.2164L89.2523 56.4236ZM84.6678 60.0288C82.6289 60.8742 80.482 61.574 78.2245 62.1258L79.6492 67.9542C82.1918 67.3327 84.6315 66.5391 86.9659 65.5712L84.6678 60.0288ZM78.0748 62.1665C77.2604 62.4109 76.5109 62.52 75.8169 62.52V68.52C77.1495 68.52 78.48 68.3091 79.7989 67.9135L78.0748 62.1665ZM107.817 70.56L106.212 73.0945L106.23 73.1063L106.249 73.1178L107.817 70.56ZM104.457 65.84L101.533 66.5121L101.555 66.6079L101.583 66.702L104.457 65.84ZM103.097 45.6L106.088 45.8244L106.092 45.7836L106.093 45.7427L103.097 45.6ZM103.257 42.24L106.253 42.3827L106.516 36.8656L101.745 39.6487L103.257 42.24ZM102.297 42.8L100.785 40.2087L100.696 40.2609L100.61 40.3192L102.297 42.8ZM100.297 44.16L98.6099 41.6792L98.5409 41.7262L98.4745 41.7769L100.297 44.16ZM94.6969 43.76L96.9391 41.7669L96.928 41.7544L96.9167 41.742L94.6969 43.76ZM95.0169 40.32L93.3946 37.7965L93.3946 37.7965L95.0169 40.32ZM97.1769 38.88L95.5505 36.3591L95.5094 36.3856L95.4692 36.4134L97.1769 38.88ZM102.137 35.92L100.708 33.2821L100.701 33.2858L100.694 33.2896L102.137 35.92ZM104.457 32.8L101.528 32.15L101.519 32.1916L101.511 32.2335L104.457 32.8ZM111.097 2.88L114.026 3.52996L114.054 3.40419L114.071 3.27649L111.097 2.88ZM114.697 0.879996L113.543 3.64923L113.627 3.68434L113.714 3.71427L114.697 0.879996ZM118.217 5.84L115.486 4.59859L115.46 4.65477L115.437 4.71195L118.217 5.84ZM114.617 17.2L111.695 16.5196L111.692 16.5344L111.688 16.5492L114.617 17.2ZM112.217 29.92L109.255 29.4434L109.217 29.6802V29.92H112.217ZM112.377 30.8H109.377V34.214L112.763 33.7751L112.377 30.8ZM116.697 30.24L117.083 33.2151L117.093 33.2137L116.697 30.24ZM122.617 30L124.228 27.469L123.963 27.3009L123.67 27.191L122.617 30ZM124.297 31.28L126.304 29.0501L126.304 29.0501L124.297 31.28ZM125.097 32L126.939 34.3681L129.768 32.1677L127.104 29.7701L125.097 32ZM124.377 32.56L122.535 30.1919L122.519 30.2046L122.503 30.2174L124.377 32.56ZM122.697 33.6L123.722 36.4194L123.832 36.3794L123.938 36.3311L122.697 33.6ZM118.297 35.2L119.246 38.046L119.284 38.0332L119.322 38.0194L118.297 35.2ZM112.537 37.28L111.45 34.484L111.32 34.5345L111.195 34.5967L112.537 37.28ZM111.257 38.32L109.015 36.3269L108.949 36.4005L108.889 36.4782L111.257 38.32ZM110.617 39.76L107.635 39.4287L107.633 39.448L107.631 39.4673L110.617 39.76ZM110.217 43.84L113.196 44.1905L113.2 44.1616L113.203 44.1327L110.217 43.84ZM110.537 64.16L113.496 63.6668L113.487 63.6143L113.477 63.5621L110.537 64.16ZM111.177 66.4L114.05 65.538L114.021 65.4412L113.986 65.3466L111.177 66.4ZM111.417 67.2L108.543 68.062L109.6 71.5854L112.839 69.8414L111.417 67.2ZM112.457 66.64L111.148 63.9406L111.091 63.9684L111.035 63.9986L112.457 66.64ZM123.497 57.36L121.49 55.1301L121.459 55.1584L121.428 55.1876L123.497 57.36ZM125.897 57.36L123.155 58.5784L123.155 58.5784L125.897 57.36ZM126.377 58.88L123.435 59.4683L123.472 59.6515L123.531 59.8287L126.377 58.88ZM126.377 61.44L128.962 62.9626L129.014 62.8738L129.06 62.7816L126.377 61.44ZM117.177 70.96L118.688 73.5513L118.741 73.5208L118.792 73.4881L117.177 70.96ZM112.937 69.08C111.786 69.08 110.616 68.7568 109.385 68.0022L106.249 73.1178C108.325 74.3899 110.568 75.08 112.937 75.08V69.08ZM109.422 68.0255C108.537 67.465 107.801 66.5478 107.33 64.978L101.583 66.702C102.392 69.3989 103.897 71.6284 106.212 73.0945L109.422 68.0255ZM107.381 65.1679C106.363 60.7426 105.857 56.328 105.857 51.92H99.8569C99.8569 56.792 100.417 61.6574 101.533 66.5121L107.381 65.1679ZM105.857 51.92C105.857 49.917 105.934 47.8852 106.088 45.8244L100.105 45.3756C99.9398 47.5815 99.8569 49.763 99.8569 51.92H105.857ZM106.093 45.7427L106.253 42.3827L100.26 42.0973L100.1 45.4573L106.093 45.7427ZM101.745 39.6487L100.785 40.2087L103.808 45.3913L104.768 44.8313L101.745 39.6487ZM100.61 40.3192L98.6099 41.6792L101.984 46.6408L103.984 45.2808L100.61 40.3192ZM98.4745 41.7769C97.9536 42.1753 97.6705 42.2 97.5769 42.2V48.2C99.2966 48.2 100.827 47.5314 102.119 46.5431L98.4745 41.7769ZM97.5769 42.2C97.5409 42.2 97.3498 42.2289 96.9391 41.7669L92.4546 45.7531C93.7506 47.2111 95.4795 48.2 97.5769 48.2V42.2ZM96.9167 41.742C96.8134 41.6283 96.8065 41.5914 96.828 41.6386C96.8395 41.664 96.8575 41.71 96.8723 41.7751C96.8873 41.841 96.8969 41.9173 96.8969 42H90.8969C90.8969 43.5619 91.6205 44.8359 92.4771 45.778L96.9167 41.742ZM96.8969 42C96.8969 42.1365 96.8762 42.2823 96.8314 42.4262C96.7871 42.5689 96.7275 42.6823 96.673 42.7641C96.5701 42.9185 96.5078 42.928 96.6391 42.8435L93.3946 37.7965C92.1546 38.5936 90.8969 39.9699 90.8969 42H96.8969ZM96.6391 42.8435C97.4131 42.346 98.1616 41.847 98.8845 41.3466L95.4692 36.4134C94.8055 36.873 94.114 37.334 93.3946 37.7965L96.6391 42.8435ZM98.8033 41.4009C100.399 40.3712 101.991 39.4213 103.579 38.5504L100.694 33.2896C98.9758 34.232 97.2612 35.2554 95.5505 36.3591L98.8033 41.4009ZM103.566 38.5579C105.608 37.4516 106.96 35.6672 107.403 33.3665L101.511 32.2335C101.42 32.7061 101.226 33.0017 100.708 33.2821L103.566 38.5579ZM107.386 33.45L114.026 3.52996L108.168 2.23004L101.528 32.15L107.386 33.45ZM114.071 3.27649C114.103 3.03168 114.143 2.89374 114.164 2.83503C114.184 2.77622 114.172 2.83877 114.079 2.95408C113.978 3.08125 113.808 3.23466 113.57 3.34637C113.335 3.45638 113.132 3.48 113.017 3.48V-2.52C111.616 -2.52 110.31 -1.93898 109.394 -0.794087C108.591 0.210438 108.264 1.42634 108.123 2.48351L114.071 3.27649ZM113.017 3.48C112.982 3.48 113.006 3.47558 113.102 3.49842C113.197 3.52113 113.343 3.56578 113.543 3.64923L115.851 -1.88924C114.994 -2.24604 114.028 -2.52 113.017 -2.52V3.48ZM113.714 3.71427C114.845 4.10692 115.417 4.46334 115.658 4.67487C115.763 4.76675 115.748 4.78167 115.706 4.70021C115.656 4.60391 115.617 4.4654 115.617 4.31999H121.617C121.617 2.55208 120.741 1.1523 119.616 0.165119C118.55 -0.770011 117.162 -1.44026 115.68 -1.95427L113.714 3.71427ZM115.617 4.31999C115.617 4.225 115.631 4.19812 115.616 4.25652C115.601 4.3138 115.564 4.42585 115.486 4.59859L120.948 7.0814C121.31 6.28545 121.617 5.33668 121.617 4.31999H115.617ZM115.437 4.71195C113.884 8.53817 112.637 12.4746 111.695 16.5196L117.539 17.8804C118.41 14.1388 119.563 10.5018 120.997 6.96805L115.437 4.71195ZM111.688 16.5492C110.82 20.4567 110.009 24.7558 109.255 29.4434L115.179 30.3966C115.918 25.8042 116.707 21.6233 117.545 17.8508L111.688 16.5492ZM109.217 29.92C109.217 30.213 109.218 31.0312 109.614 31.8216L114.98 29.1384C115.075 29.3288 115.128 29.4909 115.156 29.5956C115.186 29.7034 115.2 29.7872 115.207 29.8357C115.22 29.9272 115.217 29.9645 115.217 29.92H109.217ZM109.614 31.8216C109.483 31.5615 109.377 31.2116 109.377 30.8H115.377C115.377 30.175 115.217 29.6119 114.98 29.1384L109.614 31.8216ZM112.763 33.7751L117.083 33.2151L116.311 27.2649L111.991 27.8249L112.763 33.7751ZM117.093 33.2137C119.572 32.8832 120.836 32.76 121.177 32.76V26.76C120.345 26.76 118.622 26.9568 116.3 27.2663L117.093 33.2137ZM121.177 32.76C121.411 32.76 121.526 32.7948 121.564 32.809L123.67 27.191C122.855 26.8852 122.01 26.76 121.177 26.76V32.76ZM121.006 32.531C121.448 32.8123 121.876 33.1375 122.29 33.5099L126.304 29.0501C125.651 28.4625 124.959 27.9344 124.228 27.469L121.006 32.531ZM122.29 33.5099L123.09 34.2299L127.104 29.7701L126.304 29.0501L122.29 33.5099ZM123.255 29.6319L122.535 30.1919L126.219 34.9281L126.939 34.3681L123.255 29.6319ZM122.503 30.2174C122.152 30.4981 121.803 30.711 121.455 30.8689L123.938 36.3311C124.764 35.9557 125.535 35.4752 126.251 34.9026L122.503 30.2174ZM121.672 30.7806L117.272 32.3806L119.322 38.0194L123.722 36.4194L121.672 30.7806ZM117.348 32.3539C115.381 33.0098 113.415 33.7198 111.45 34.484L113.624 40.076C115.499 39.3468 117.373 38.6702 119.246 38.046L117.348 32.3539ZM111.195 34.5967C110.331 35.0287 109.612 35.6545 109.015 36.3269L113.499 40.3131C113.755 40.0255 113.889 39.958 113.879 39.9633L111.195 34.5967ZM108.889 36.4782C108.263 37.2831 107.764 38.2722 107.635 39.4287L113.599 40.0913C113.594 40.1356 113.586 40.1733 113.577 40.2029C113.569 40.2323 113.562 40.251 113.558 40.2584C113.552 40.2722 113.565 40.2393 113.625 40.1618L108.889 36.4782ZM107.631 39.4673L107.231 43.5473L113.203 44.1327L113.603 40.0527L107.631 39.4673ZM107.237 43.4895C106.797 47.2334 106.577 51.0038 106.577 54.8H112.577C112.577 51.2362 112.783 47.7 113.196 44.1905L107.237 43.4895ZM106.577 54.8C106.577 58.1016 106.919 61.4219 107.597 64.7579L113.477 63.5621C112.875 60.6047 112.577 57.685 112.577 54.8H106.577ZM107.578 64.6532C107.726 65.5437 108.005 66.4853 108.368 67.4534L113.986 65.3466C113.709 64.6081 113.561 64.0563 113.496 63.6668L107.578 64.6532ZM108.303 67.262L108.543 68.062L114.29 66.338L114.05 65.538L108.303 67.262ZM112.839 69.8414L113.879 69.2814L111.035 63.9986L109.995 64.5586L112.839 69.8414ZM113.766 69.3394C115.019 68.7319 116.633 67.5181 118.467 65.9765C120.374 64.3734 122.744 62.2195 125.566 59.5324L121.428 55.1876C118.649 57.8338 116.379 59.8932 114.607 61.3835C112.761 62.9352 111.655 63.6947 111.148 63.9406L113.766 69.3394ZM125.504 59.5899C125.633 59.4737 125.665 59.47 125.599 59.5033C125.527 59.5392 125.294 59.64 124.937 59.64V53.64C123.406 53.64 122.226 54.4679 121.49 55.1301L125.504 59.5899ZM124.937 59.64C124.547 59.64 124.092 59.5162 123.697 59.22C123.339 58.9515 123.194 58.6642 123.155 58.5784L128.638 56.1416C128.387 55.5758 127.975 54.9285 127.297 54.42C126.582 53.8838 125.753 53.64 124.937 53.64V59.64ZM123.155 58.5784C123.276 58.8494 123.37 59.1441 123.435 59.4683L129.319 58.2916C129.17 57.5492 128.945 56.8306 128.638 56.1416L123.155 58.5784ZM123.531 59.8287C123.594 60.0194 123.617 60.1795 123.617 60.32H129.617C129.617 59.5005 129.479 58.7006 129.223 57.9313L123.531 59.8287ZM123.617 60.32C123.617 60.3699 123.609 60.2678 123.694 60.0984L129.06 62.7816C129.465 61.9722 129.617 61.1235 129.617 60.32H123.617ZM123.792 59.9174C121.74 63.4004 119.007 66.2305 115.562 68.4319L118.792 73.4881C123.026 70.7828 126.427 67.2663 128.962 62.9626L123.792 59.9174ZM115.665 68.3687C114.865 68.8357 113.977 69.08 112.937 69.08V75.08C114.99 75.08 116.929 74.5776 118.688 73.5513L115.665 68.3687ZM157.161 68.4V71.4H157.24L157.318 71.3959L157.161 68.4ZM152.121 65.44L149.131 65.6851L149.137 65.7636L149.148 65.8418L152.121 65.44ZM152.521 31.36L155.518 31.4865L155.519 31.4646L155.519 31.4427L152.521 31.36ZM153.001 19.12L155.911 19.8476L155.911 19.8476L153.001 19.12ZM157.161 15.6L155.958 18.3485L155.982 18.3591L156.007 18.3692L157.161 15.6ZM160.921 20.24L158.014 20.9835L158.043 21.0954L158.08 21.2047L160.921 20.24ZM164.441 28.48L167.147 27.1849L167.125 27.1401L167.102 27.0959L164.441 28.48ZM175.161 50.88L172.455 52.175L172.507 52.2857L172.569 52.3916L175.161 50.88ZM175.721 51.84L173.129 53.3516L174.547 55.7812L177.062 54.5233L175.721 51.84ZM176.521 51.68V54.68H179.521V51.68H176.521ZM176.601 31.92L179.595 32.0962L179.601 32.0082V31.92H176.601ZM175.161 12.32L172.184 12.6921L172.205 12.8623L172.246 13.0291L175.161 12.32ZM175.081 11.68H172.081V11.8668L172.104 12.0521L175.081 11.68ZM176.841 10.08V7.08H176.772L176.704 7.08309L176.841 10.08ZM181.161 11.52L179.208 13.7978L179.266 13.8473L179.326 13.8939L181.161 11.52ZM183.081 15.36L186.079 15.2751L186.078 15.2209L186.074 15.1669L183.081 15.36ZM183.401 32.24L180.401 32.2686L180.401 32.2837L180.401 32.2988L183.401 32.24ZM184.201 64.96H187.201V64.9161L187.199 64.8722L184.201 64.96ZM182.121 67.6L182.005 64.6022L181.85 64.6082L181.696 64.6302L182.121 67.6ZM176.441 65.2L173.81 66.6422L173.81 66.6425L176.441 65.2ZM159.721 34.48L162.365 33.0627L157.423 23.8432L156.727 34.2804L159.721 34.48ZM159.481 36.72L156.516 36.2638L156.514 36.2721L156.513 36.2804L159.481 36.72ZM159.161 40.96H156.161V40.9701L156.161 40.9801L159.161 40.96ZM159.481 64.88H162.481V64.85L162.48 64.82L159.481 64.88ZM159.081 67.6L156.458 66.1431L156.458 66.1431L159.081 67.6ZM157.161 65.4H156.281V71.4H157.161V65.4ZM156.281 65.4C155.37 65.4 155.097 65.2133 155.1 65.2156C155.114 65.2258 155.139 65.2522 155.15 65.2721C155.156 65.2825 155.119 65.2227 155.094 65.0382L149.148 65.8418C149.371 67.4982 150.136 69.0476 151.621 70.1044C153.011 71.0934 154.684 71.4 156.281 71.4V65.4ZM155.111 65.1949C154.851 62.0255 154.721 58.8006 154.721 55.52H148.721C148.721 58.9594 148.857 62.3479 149.131 65.6851L155.111 65.1949ZM154.721 55.52C154.721 52.1299 154.984 44.146 155.518 31.4865L149.523 31.2335C148.991 43.8539 148.721 51.9768 148.721 55.52H154.721ZM155.519 31.4427C155.626 27.5794 155.719 24.6399 155.798 22.6176C155.838 21.6043 155.874 20.8359 155.905 20.3022C155.921 20.0335 155.935 19.8429 155.946 19.7188C155.965 19.5084 155.964 19.635 155.911 19.8476L150.09 18.3924C150.01 18.7117 149.981 19.0591 149.97 19.1837C149.951 19.3946 149.933 19.6532 149.916 19.9478C149.881 20.5408 149.843 21.3557 149.803 22.3824C149.722 24.4401 149.629 27.4073 149.522 31.2773L155.519 31.4427ZM155.911 19.8476C156.035 19.3523 156.081 18.862 156.081 18.4H150.081C150.081 18.4339 150.079 18.4494 150.079 18.4487C150.079 18.448 150.081 18.428 150.09 18.3924L155.911 19.8476ZM156.081 18.4C156.081 17.9684 156.111 17.666 156.147 17.4687C156.184 17.265 156.215 17.2424 156.172 17.3209C156.12 17.4163 155.972 17.6323 155.675 17.8126C155.373 17.9967 155.086 18.04 154.921 18.04V12.04C154.142 12.04 153.318 12.2233 152.556 12.6874C151.8 13.1477 151.268 13.7837 150.909 14.4391C150.241 15.6593 150.081 17.1044 150.081 18.4H156.081ZM154.921 18.04C155.003 18.04 155.325 18.0716 155.958 18.3485L158.363 12.8515C157.289 12.3817 156.118 12.04 154.921 12.04V18.04ZM156.007 18.3692C156.928 18.7532 157.624 19.4592 158.014 20.9835L163.827 19.4965C163.044 16.4341 161.233 14.0468 158.314 12.8308L156.007 18.3692ZM158.08 21.2047C159.089 24.1765 160.323 27.0633 161.779 29.8641L167.102 27.0959C165.785 24.5634 164.672 21.9568 163.761 19.2753L158.08 21.2047ZM161.735 29.775L172.455 52.175L177.867 49.5849L167.147 27.1849L161.735 29.775ZM172.569 52.3916L173.129 53.3516L178.312 50.3284L177.752 49.3684L172.569 52.3916ZM177.062 54.5233C176.9 54.6045 176.761 54.6433 176.669 54.6617C176.578 54.6799 176.525 54.68 176.521 54.68V48.68C175.887 48.68 175.126 48.7831 174.379 49.1567L177.062 54.5233ZM179.521 51.68V34.72H173.521V51.68H179.521ZM179.521 34.72C179.521 33.8155 179.546 32.941 179.595 32.0962L173.606 31.7438C173.549 32.7124 173.521 33.7045 173.521 34.72H179.521ZM179.601 31.92V27.04H173.601V31.92H179.601ZM179.601 27.04C179.601 21.0302 179.111 15.8673 178.076 11.6109L172.246 13.0291C173.13 16.6661 173.601 21.3165 173.601 27.04H179.601ZM178.137 11.9479L178.057 11.3079L172.104 12.0521L172.184 12.6921L178.137 11.9479ZM178.081 11.68C178.081 11.711 178.077 11.8604 177.996 12.074C177.909 12.3028 177.757 12.5414 177.539 12.7398C177.116 13.124 176.764 13.0866 176.977 13.0769L176.704 7.08309C175.744 7.12673 174.512 7.3827 173.503 8.30017C172.42 9.28438 172.081 10.5783 172.081 11.68H178.081ZM176.841 13.08C178.029 13.08 178.733 13.3902 179.208 13.7978L183.113 9.24223C181.348 7.72979 179.172 7.08 176.841 7.08V13.08ZM179.326 13.8939C179.733 14.2085 180.028 14.6469 180.087 15.5531L186.074 15.1669C185.92 12.7665 184.934 10.6448 182.995 9.14614L179.326 13.8939ZM180.082 15.4449C180.241 21.0796 180.348 26.6875 180.401 32.2686L186.4 32.2114C186.347 26.5925 186.24 20.947 186.079 15.2751L180.082 15.4449ZM180.401 32.2988C180.615 43.1885 180.882 54.1048 181.202 65.0478L187.199 64.8722C186.88 53.9485 186.613 43.0515 186.4 32.1812L180.401 32.2988ZM181.201 64.96C181.201 65.1924 181.176 65.2965 181.173 65.3083C181.171 65.314 181.202 65.1989 181.324 65.0434C181.456 64.8763 181.629 64.7458 181.802 64.6679C181.961 64.597 182.049 64.6005 182.005 64.6022L182.236 70.5978C183.579 70.5461 185.02 70.048 186.037 68.7566C186.969 67.5738 187.201 66.1519 187.201 64.96H181.201ZM181.696 64.6302C181.48 64.661 181.223 64.68 180.921 64.68V70.68C181.471 70.68 182.014 70.6457 182.545 70.5698L181.696 64.6302ZM180.921 64.68C179.798 64.68 179.388 64.335 179.071 63.7575L173.81 66.6425C175.307 69.3716 177.883 70.68 180.921 70.68V64.68ZM179.071 63.7578C171.499 49.9459 165.931 39.7162 162.365 33.0627L157.076 35.8972C160.657 42.5771 166.236 52.8275 173.81 66.6422L179.071 63.7578ZM156.727 34.2804C156.679 35.0064 156.607 35.6666 156.516 36.2638L162.446 37.1762C162.567 36.3868 162.656 35.5536 162.714 34.6796L156.727 34.2804ZM156.513 36.2804C156.279 37.8587 156.161 39.4191 156.161 40.96H162.161C162.161 39.7276 162.255 38.4613 162.448 37.1596L156.513 36.2804ZM156.161 40.9801C156.214 48.9402 156.321 56.9268 156.481 64.94L162.48 64.82C162.32 56.8332 162.214 48.8732 162.161 40.9399L156.161 40.9801ZM156.481 64.88V65.84H162.481V64.88H156.481ZM156.481 65.84C156.481 66.155 156.42 66.2111 156.458 66.1431L161.703 69.0569C162.274 68.0289 162.481 66.9117 162.481 65.84H156.481ZM156.458 66.1431C156.731 65.6523 157.11 65.4477 157.247 65.3908C157.354 65.3462 157.311 65.3879 157.003 65.4041L157.318 71.3959C158.511 71.3331 160.627 70.9939 161.703 69.0569L156.458 66.1431ZM200.726 60.56L198.973 58.1248L198.894 58.182L198.819 58.2442L200.726 60.56ZM205.686 39.52L202.889 40.6046L202.902 40.6394L202.916 40.6738L205.686 39.52ZM201.686 31.68L204.221 30.0761L201.477 25.7393L199.044 30.2577L201.686 31.68ZM198.646 40L201.586 40.5947L201.589 40.5806L201.592 40.5665L198.646 40ZM197.446 59.12L200.444 59.0263L200.442 58.955L200.436 58.8839L197.446 59.12ZM194.566 65.12L192.845 67.5777L192.873 67.5972L192.902 67.6162L194.566 65.12ZM191.206 60.64L188.36 61.5887L188.364 61.6008L188.368 61.613L191.206 60.64ZM190.086 53.36L193.085 53.3023L193.084 53.2313L193.079 53.1604L190.086 53.36ZM190.006 52.16L187.009 52.0227L187.001 52.1912L187.012 52.3596L190.006 52.16ZM193.686 31.68L190.84 30.7313L190.834 30.7485L190.828 30.7657L193.686 31.68ZM193.046 27.92L190.604 29.6637L190.644 29.7195L190.687 29.7735L193.046 27.92ZM194.646 24.72V21.72H194.596L194.546 21.7217L194.646 24.72ZM205.366 28.88L203.119 30.8677L203.127 30.8768L203.135 30.8858L205.366 28.88ZM214.006 49.2H217.006V49.0967L216.999 48.9936L214.006 49.2ZM210.566 59.52L208.1 57.8103L208.091 57.8238L208.082 57.8375L210.566 59.52ZM202.566 66.24L203.514 69.086L203.572 69.0667L203.63 69.045L202.566 66.24ZM198.566 64.68C199.499 64.68 200.303 64.366 200.887 64.0633C201.496 63.747 202.082 63.3291 202.633 62.8758L198.819 58.2442C198.462 58.5375 198.235 58.6796 198.125 58.7367C198.074 58.7629 198.083 58.7532 198.144 58.7348C198.205 58.7167 198.352 58.68 198.566 58.68V64.68ZM202.478 62.9952C207.662 59.2654 210.286 53.9981 210.286 47.52H204.286C204.286 52.1352 202.536 55.5613 198.973 58.1248L202.478 62.9952ZM210.286 47.52C210.286 44.3506 209.674 41.2918 208.455 38.3662L202.916 40.6738C203.831 42.8682 204.286 45.1427 204.286 47.52H210.286ZM208.483 38.4354C207.392 35.6234 205.968 32.837 204.221 30.0761L199.15 33.2839C200.71 35.7497 201.952 38.1899 202.889 40.6046L208.483 38.4354ZM199.044 30.2577C197.423 33.2686 196.297 36.3288 195.7 39.4335L201.592 40.5665C202.061 38.1245 202.962 35.6381 204.327 33.1023L199.044 30.2577ZM195.705 39.4053C194.714 44.3055 194.206 48.8547 194.206 53.04H200.206C200.206 49.332 200.657 45.1879 201.586 40.5947L195.705 39.4053ZM194.206 53.04C194.206 55.1457 194.289 57.2511 194.455 59.3561L200.436 58.8839C200.283 56.9355 200.206 54.9876 200.206 53.04H194.206ZM194.447 59.2137C194.477 60.1846 194.598 61.2852 195.017 62.2425C195.485 63.3128 196.604 64.68 198.566 64.68V58.68C199.062 58.68 199.572 58.8516 199.98 59.1774C200.339 59.4644 200.48 59.7598 200.514 59.8375C200.55 59.9202 200.532 59.9104 200.505 59.7468C200.479 59.5926 200.455 59.3582 200.444 59.0263L194.447 59.2137ZM199.766 63.72C198.51 63.72 197.353 63.3725 196.23 62.6238L192.902 67.6162C194.979 69.0008 197.288 69.72 199.766 69.72V63.72ZM196.286 62.6623C195.212 61.9105 194.48 60.9397 194.043 59.667L188.368 61.613C189.211 64.0736 190.719 66.0895 192.845 67.5777L196.286 62.6623ZM194.052 59.6913C193.476 57.9633 193.134 55.849 193.085 53.3023L187.086 53.4177C187.144 56.4177 187.549 59.1567 188.36 61.5887L194.052 59.6913ZM193.079 53.1604L192.999 51.9604L187.012 52.3596L187.092 53.5596L193.079 53.1604ZM193.002 52.2973C193.31 45.5749 194.49 39.0095 196.543 32.5943L190.828 30.7657C188.615 37.6839 187.341 44.7718 187.009 52.0227L193.002 52.2973ZM196.532 32.6287C196.775 31.8981 196.926 31.1226 196.926 30.32H190.926C190.926 30.3707 190.916 30.5019 190.84 30.7313L196.532 32.6287ZM196.926 30.32C196.926 28.7184 196.357 27.2787 195.405 26.0665L190.687 29.7735C190.908 30.0546 190.926 30.2149 190.926 30.32H196.926ZM195.487 26.1763C195.397 26.0504 195.33 25.9465 195.281 25.8639C195.232 25.7807 195.207 25.7279 195.197 25.7038C195.186 25.679 195.196 25.6971 195.21 25.7541C195.224 25.8114 195.246 25.9236 195.246 26.08H189.246C189.246 27.5391 189.989 28.8028 190.604 29.6637L195.487 26.1763ZM195.246 26.08C195.246 26.3547 195.175 26.7209 194.954 27.0815C194.74 27.431 194.479 27.6228 194.325 27.7101C194.184 27.7897 194.123 27.7898 194.215 27.7703C194.302 27.7521 194.471 27.7275 194.746 27.7183L194.546 21.7217C193.571 21.7541 192.394 21.9078 191.367 22.4899C190.116 23.1987 189.246 24.4741 189.246 26.08H195.246ZM194.646 27.72H195.686V21.72H194.646V27.72ZM195.686 27.72C198.904 27.72 201.284 28.7941 203.119 30.8677L207.613 26.8923C204.54 23.4192 200.467 21.72 195.686 21.72V27.72ZM203.135 30.8858C207.918 36.2057 210.526 42.3472 211.013 49.4064L216.999 48.9936C216.419 40.5861 213.267 33.1809 207.597 26.8742L203.135 30.8858ZM211.006 49.2V49.84H217.006V49.2H211.006ZM211.006 49.84C211.006 52.2251 210.143 54.866 208.1 57.8103L213.031 61.2297C215.575 57.5607 217.006 53.7483 217.006 49.84H211.006ZM208.082 57.8375C206.115 60.7407 203.906 62.5228 201.502 63.435L203.63 69.045C207.411 67.6105 210.536 64.9126 213.049 61.2025L208.082 57.8375ZM201.617 63.3939C200.928 63.6237 200.315 63.72 199.766 63.72V69.72C201.03 69.72 202.284 69.4963 203.514 69.086L201.617 63.3939ZM229.379 70.56L227.774 73.0945L227.793 73.1063L227.812 73.1178L229.379 70.56ZM226.019 65.84L223.096 66.5121L223.118 66.6079L223.146 66.702L226.019 65.84ZM224.659 45.6L227.651 45.8244L227.654 45.7836L227.656 45.7427L224.659 45.6ZM224.819 42.24L227.816 42.3827L228.079 36.8656L223.308 39.6487L224.819 42.24ZM223.859 42.8L222.348 40.2087L222.258 40.2609L222.172 40.3192L223.859 42.8ZM221.859 44.16L220.172 41.6792L220.103 41.7262L220.037 41.7769L221.859 44.16ZM216.259 43.76L218.502 41.7669L218.49 41.7544L218.479 41.742L216.259 43.76ZM216.579 40.32L214.957 37.7965L214.957 37.7965L216.579 40.32ZM218.739 38.88L217.113 36.3591L217.072 36.3856L217.032 36.4134L218.739 38.88ZM223.699 35.92L222.271 33.2821L222.264 33.2858L222.257 33.2896L223.699 35.92ZM226.019 32.8L223.091 32.15L223.081 32.1916L223.073 32.2335L226.019 32.8ZM232.659 2.88L235.588 3.52996L235.616 3.40419L235.633 3.27649L232.659 2.88ZM236.259 0.879996L235.106 3.64923L235.19 3.68434L235.276 3.71427L236.259 0.879996ZM239.779 5.84L237.048 4.59859L237.023 4.65477L237 4.71195L239.779 5.84ZM236.179 17.2L233.258 16.5196L233.254 16.5344L233.251 16.5492L236.179 17.2ZM233.779 29.92L230.817 29.4434L230.779 29.6802V29.92H233.779ZM233.939 30.8H230.939V34.214L234.325 33.7751L233.939 30.8ZM238.259 30.24L238.645 33.2151L238.656 33.2137L238.259 30.24ZM244.179 30L245.79 27.469L245.526 27.3009L245.233 27.191L244.179 30ZM245.859 31.28L247.866 29.0501L247.866 29.0501L245.859 31.28ZM246.659 32L248.501 34.3681L251.33 32.1677L248.666 29.7701L246.659 32ZM245.939 32.56L244.098 30.1919L244.081 30.2046L244.065 30.2174L245.939 32.56ZM244.259 33.6L245.285 36.4194L245.394 36.3794L245.501 36.3311L244.259 33.6ZM239.859 35.2L240.808 38.046L240.847 38.0332L240.885 38.0194L239.859 35.2ZM234.099 37.28L233.012 34.484L232.882 34.5345L232.758 34.5967L234.099 37.28ZM232.819 38.32L230.577 36.3269L230.512 36.4005L230.451 36.4782L232.819 38.32ZM232.179 39.76L229.198 39.4287L229.196 39.448L229.194 39.4673L232.179 39.76ZM231.779 43.84L234.759 44.1905L234.762 44.1616L234.765 44.1327L231.779 43.84ZM232.099 64.16L235.059 63.6668L235.05 63.6143L235.039 63.5621L232.099 64.16ZM232.739 66.4L235.613 65.538L235.584 65.4412L235.548 65.3466L232.739 66.4ZM232.979 67.2L230.106 68.062L231.163 71.5854L234.402 69.8414L232.979 67.2ZM234.019 66.64L232.711 63.9406L232.653 63.9684L232.597 63.9986L234.019 66.64ZM245.059 57.36L243.052 55.1301L243.021 55.1584L242.99 55.1876L245.059 57.36ZM247.459 57.36L244.718 58.5784L244.718 58.5784L247.459 57.36ZM247.939 58.88L244.998 59.4683L245.034 59.6515L245.093 59.8287L247.939 58.88ZM247.939 61.44L250.524 62.9626L250.577 62.8738L250.623 62.7816L247.939 61.44ZM238.739 70.96L240.251 73.5513L240.303 73.5208L240.355 73.4881L238.739 70.96ZM234.499 69.08C233.348 69.08 232.178 68.7568 230.947 68.0022L227.812 73.1178C229.887 74.3899 232.131 75.08 234.499 75.08V69.08ZM230.985 68.0255C230.099 67.465 229.364 66.5478 228.893 64.978L223.146 66.702C223.955 69.3989 225.459 71.6284 227.774 73.0945L230.985 68.0255ZM228.943 65.1679C227.926 60.7426 227.419 56.328 227.419 51.92H221.419C221.419 56.792 221.98 61.6574 223.096 66.5121L228.943 65.1679ZM227.419 51.92C227.419 49.917 227.496 47.8852 227.651 45.8244L221.668 45.3756C221.502 47.5815 221.419 49.763 221.419 51.92H227.419ZM227.656 45.7427L227.816 42.3827L221.823 42.0973L221.663 45.4573L227.656 45.7427ZM223.308 39.6487L222.348 40.2087L225.371 45.3913L226.331 44.8313L223.308 39.6487ZM222.172 40.3192L220.172 41.6792L223.546 46.6408L225.546 45.2808L222.172 40.3192ZM220.037 41.7769C219.516 42.1753 219.233 42.2 219.139 42.2V48.2C220.859 48.2 222.389 47.5314 223.682 46.5431L220.037 41.7769ZM219.139 42.2C219.103 42.2 218.912 42.2289 218.502 41.7669L214.017 45.7531C215.313 47.2111 217.042 48.2 219.139 48.2V42.2ZM218.479 41.742C218.376 41.6283 218.369 41.5914 218.39 41.6386C218.402 41.664 218.42 41.71 218.435 41.7751C218.45 41.841 218.459 41.9173 218.459 42H212.459C212.459 43.5619 213.183 44.8359 214.04 45.778L218.479 41.742ZM218.459 42C218.459 42.1365 218.439 42.2823 218.394 42.4262C218.35 42.5689 218.29 42.6823 218.236 42.7641C218.133 42.9185 218.07 42.928 218.202 42.8435L214.957 37.7965C213.717 38.5936 212.459 39.9699 212.459 42H218.459ZM218.202 42.8435C218.976 42.346 219.724 41.847 220.447 41.3466L217.032 36.4134C216.368 36.873 215.676 37.334 214.957 37.7965L218.202 42.8435ZM220.366 41.4009C221.962 40.3712 223.554 39.4213 225.142 38.5504L222.257 33.2896C220.538 34.232 218.824 35.2554 217.113 36.3591L220.366 41.4009ZM225.128 38.5579C227.171 37.4516 228.523 35.6672 228.965 33.3665L223.073 32.2335C222.982 32.7061 222.788 33.0017 222.271 33.2821L225.128 38.5579ZM228.948 33.45L235.588 3.52996L229.731 2.23004L223.091 32.15L228.948 33.45ZM235.633 3.27649C235.666 3.03168 235.705 2.89374 235.726 2.83503C235.747 2.77622 235.734 2.83877 235.642 2.95408C235.54 3.08125 235.371 3.23466 235.133 3.34637C234.898 3.45638 234.695 3.48 234.579 3.48V-2.52C233.178 -2.52 231.873 -1.93898 230.957 -0.794087C230.153 0.210438 229.827 1.42634 229.686 2.48351L235.633 3.27649ZM234.579 3.48C234.544 3.48 234.569 3.47558 234.665 3.49842C234.76 3.52113 234.905 3.56578 235.106 3.64923L237.413 -1.88924C236.557 -2.24604 235.59 -2.52 234.579 -2.52V3.48ZM235.276 3.71427C236.408 4.10692 236.98 4.46334 237.221 4.67487C237.325 4.76675 237.31 4.78167 237.268 4.70021C237.218 4.60391 237.179 4.4654 237.179 4.31999H243.179C243.179 2.55208 242.303 1.1523 241.178 0.165119C240.113 -0.770011 238.724 -1.44026 237.243 -1.95427L235.276 3.71427ZM237.179 4.31999C237.179 4.225 237.194 4.19812 237.178 4.25652C237.163 4.3138 237.127 4.42585 237.048 4.59859L242.51 7.0814C242.872 6.28545 243.179 5.33668 243.179 4.31999H237.179ZM237 4.71195C235.447 8.53817 234.2 12.4746 233.258 16.5196L239.101 17.8804C239.973 14.1388 241.125 10.5018 242.559 6.96805L237 4.71195ZM233.251 16.5492C232.382 20.4567 231.572 24.7558 230.817 29.4434L236.741 30.3966C237.48 25.8042 238.27 21.6233 239.108 17.8508L233.251 16.5492ZM230.779 29.92C230.779 30.213 230.781 31.0312 231.176 31.8216L236.543 29.1384C236.638 29.3288 236.69 29.4909 236.719 29.5956C236.748 29.7034 236.762 29.7872 236.769 29.8357C236.782 29.9272 236.779 29.9645 236.779 29.92H230.779ZM231.176 31.8216C231.046 31.5615 230.939 31.2116 230.939 30.8H236.939C236.939 30.175 236.779 29.6119 236.543 29.1384L231.176 31.8216ZM234.325 33.7751L238.645 33.2151L237.874 27.2649L233.554 27.8249L234.325 33.7751ZM238.656 33.2137C241.134 32.8832 242.398 32.76 242.739 32.76V26.76C241.907 26.76 240.185 26.9568 237.863 27.2663L238.656 33.2137ZM242.739 32.76C242.973 32.76 243.088 32.7948 243.126 32.809L245.233 27.191C244.417 26.8852 243.572 26.76 242.739 26.76V32.76ZM242.569 32.531C243.011 32.8123 243.439 33.1375 243.852 33.5099L247.866 29.0501C247.213 28.4625 246.521 27.9344 245.79 27.469L242.569 32.531ZM243.852 33.5099L244.652 34.2299L248.666 29.7701L247.866 29.0501L243.852 33.5099ZM244.818 29.6319L244.098 30.1919L247.781 34.9281L248.501 34.3681L244.818 29.6319ZM244.065 30.2174C243.714 30.4981 243.365 30.711 243.018 30.8689L245.501 36.3311C246.327 35.9557 247.098 35.4752 247.813 34.9026L244.065 30.2174ZM243.234 30.7806L238.834 32.3806L240.885 38.0194L245.285 36.4194L243.234 30.7806ZM238.911 32.3539C236.943 33.0098 234.977 33.7198 233.012 34.484L235.187 40.076C237.062 39.3468 238.936 38.6702 240.808 38.046L238.911 32.3539ZM232.758 34.5967C231.894 35.0287 231.175 35.6545 230.577 36.3269L235.062 40.3131C235.317 40.0255 235.452 39.958 235.441 39.9633L232.758 34.5967ZM230.451 36.4782C229.825 37.2831 229.326 38.2722 229.198 39.4287L235.161 40.0913C235.156 40.1356 235.148 40.1733 235.14 40.2029C235.132 40.2323 235.124 40.251 235.121 40.2584C235.115 40.2722 235.127 40.2393 235.187 40.1618L230.451 36.4782ZM229.194 39.4673L228.794 43.5473L234.765 44.1327L235.165 40.0527L229.194 39.4673ZM228.8 43.4895C228.359 47.2334 228.139 51.0038 228.139 54.8H234.139C234.139 51.2362 234.346 47.7 234.759 44.1905L228.8 43.4895ZM228.139 54.8C228.139 58.1016 228.481 61.4219 229.16 64.7579L235.039 63.5621C234.438 60.6047 234.139 57.685 234.139 54.8H228.139ZM229.14 64.6532C229.289 65.5437 229.567 66.4853 229.93 67.4534L235.548 65.3466C235.271 64.6081 235.123 64.0563 235.059 63.6668L229.14 64.6532ZM229.866 67.262L230.106 68.062L235.853 66.338L235.613 65.538L229.866 67.262ZM234.402 69.8414L235.442 69.2814L232.597 63.9986L231.557 64.5586L234.402 69.8414ZM235.328 69.3394C236.581 68.7319 238.196 67.5181 240.03 65.9765C241.937 64.3734 244.307 62.2195 247.128 59.5324L242.99 55.1876C240.212 57.8338 237.942 59.8932 236.169 61.3835C234.323 62.9352 233.218 63.6947 232.711 63.9406L235.328 69.3394ZM247.066 59.5899C247.195 59.4737 247.228 59.47 247.161 59.5033C247.089 59.5392 246.856 59.64 246.499 59.64V53.64C244.968 53.64 243.788 54.4679 243.052 55.1301L247.066 59.5899ZM246.499 59.64C246.11 59.64 245.654 59.5162 245.259 59.22C244.901 58.9515 244.756 58.6642 244.718 58.5784L250.201 56.1416C249.949 55.5758 249.537 54.9285 248.859 54.42C248.144 53.8838 247.316 53.64 246.499 53.64V59.64ZM244.718 58.5784C244.838 58.8494 244.933 59.1441 244.998 59.4683L250.881 58.2916C250.733 57.5492 250.507 56.8306 250.201 56.1416L244.718 58.5784ZM245.093 59.8287C245.157 60.0194 245.179 60.1795 245.179 60.32H251.179C251.179 59.5005 251.042 58.7006 250.785 57.9313L245.093 59.8287ZM245.179 60.32C245.179 60.3699 245.171 60.2678 245.256 60.0984L250.623 62.7816C251.027 61.9722 251.179 61.1235 251.179 60.32H245.179ZM245.354 59.9174C243.303 63.4004 240.57 66.2305 237.124 68.4319L240.355 73.4881C244.589 70.7828 247.989 67.2663 250.524 62.9626L245.354 59.9174ZM237.228 68.3687C236.427 68.8357 235.539 69.08 234.499 69.08V75.08C236.553 75.08 238.492 74.5776 240.251 73.5513L237.228 68.3687ZM262.058 42.48L259.485 40.9365L255.613 47.3904L262.863 45.3699L262.058 42.48ZM269.978 38.16L267.885 36.0106L267.885 36.0106L269.978 38.16ZM272.538 30.08L275.261 28.8228L273.952 25.9851L271.17 27.4099L272.538 30.08ZM267.098 34.56L264.722 32.7276L264.714 32.7376L267.098 34.56ZM263.258 40.48L265.83 42.0235L265.859 41.9751L265.886 41.9258L263.258 40.48ZM257.098 64.56L258.824 62.1066L258.824 62.1066L257.098 64.56ZM251.898 56.16L254.858 55.674L254.854 55.6486L254.849 55.6233L251.898 56.16ZM251.738 54.4L248.739 54.3211L248.738 54.3605V54.4H251.738ZM251.818 51.36L254.816 51.4389L254.818 51.3995V51.36H251.818ZM251.498 48.4L254.433 47.782L254.427 47.7536L254.421 47.7254L251.498 48.4ZM253.018 43.84L251.606 41.1929L251.548 41.2238L251.491 41.2572L253.018 43.84ZM255.018 42L257.514 43.6641L257.578 43.5679L257.634 43.467L255.018 42ZM261.338 31.76L258.911 29.9955L258.882 30.036L258.854 30.0775L261.338 31.76ZM262.618 29.92L260.151 28.2124L260.136 28.234L260.121 28.2559L262.618 29.92ZM264.298 27.92L262.238 25.739L262.206 25.7684L262.176 25.7987L264.298 27.92ZM275.578 27.36L277.578 25.1243L277.496 25.0514L277.41 24.9847L275.578 27.36ZM277.498 38.24L280.076 39.7732L280.121 39.6983L280.161 39.621L277.498 38.24ZM273.098 43.04L274.752 45.5423L274.783 45.5221L274.813 45.5012L273.098 43.04ZM263.818 47.52L263.015 44.6294L262.978 44.6397L262.941 44.6509L263.818 47.52ZM258.218 57.28L255.248 57.7043L255.257 57.7712L255.27 57.8377L258.218 57.28ZM265.498 63.44L265.381 66.4377L265.439 66.44H265.498V63.44ZM266.858 63.44V66.44H269.858V63.44H266.858ZM266.858 63.2L267.267 60.2281L263.858 59.7578V63.2H266.858ZM272.218 64.64L274.56 62.7659L274.506 62.6979L274.447 62.6331L272.218 64.64ZM272.538 65.36L275.507 65.7843L275.538 65.5732V65.36H272.538ZM271.978 66.4L269.856 64.2787L269.856 64.2787L271.978 66.4ZM271.178 66.96L272.002 69.8446L272.149 69.8024L272.292 69.7454L271.178 66.96ZM262.863 45.3699C266.507 44.3543 269.62 42.6957 272.07 40.3094L267.885 36.0106C266.282 37.5709 264.115 38.7923 261.252 39.5901L262.863 45.3699ZM272.07 40.3094C274.443 37.9994 276.018 35.2732 276.018 32.16H270.018C270.018 33.1001 269.565 34.374 267.885 36.0106L272.07 40.3094ZM276.018 32.16C276.018 30.9902 275.745 29.87 275.261 28.8228L269.814 31.3372C269.97 31.6767 270.018 31.9431 270.018 32.16H276.018ZM271.17 27.4099C268.607 28.7227 266.444 30.496 264.722 32.7276L269.473 36.3924C270.631 34.8907 272.095 33.6773 273.905 32.7501L271.17 27.4099ZM264.714 32.7376C263.231 34.6778 261.87 36.7781 260.629 39.0342L265.886 41.9258C266.992 39.9153 268.191 38.0689 269.481 36.3823L264.714 32.7376ZM260.685 38.9365L259.485 40.9365L264.63 44.0235L265.83 42.0235L260.685 38.9365ZM266.618 64.6C263.779 64.6 261.207 63.7836 258.824 62.1066L255.371 67.0134C258.748 69.3897 262.522 70.6 266.618 70.6V64.6ZM258.824 62.1066C256.623 60.558 255.318 58.4777 254.858 55.674L248.937 56.646C249.65 60.989 251.812 64.5087 255.371 67.0134L258.824 62.1066ZM254.849 55.6233C254.774 55.2108 254.738 54.8038 254.738 54.4H248.738C248.738 55.1696 248.808 55.9358 248.946 56.6967L254.849 55.6233ZM254.736 54.4789L254.816 51.4389L248.819 51.2811L248.739 54.3211L254.736 54.4789ZM254.818 51.36C254.818 50.1768 254.686 48.9827 254.433 47.782L248.562 49.018C248.736 49.8439 248.818 50.6232 248.818 51.36H254.818ZM254.421 47.7254C254.301 47.2083 254.258 46.7976 254.258 46.48H248.258C248.258 47.3357 248.374 48.2051 248.574 49.0746L254.421 47.7254ZM254.258 46.48C254.258 46.4921 254.255 46.5297 254.24 46.5807C254.224 46.6318 254.204 46.668 254.194 46.6841C254.175 46.7114 254.237 46.6039 254.544 46.4228L251.491 41.2572C249.696 42.3178 248.258 44.0522 248.258 46.48H254.258ZM254.429 46.4871C255.693 45.8132 256.723 44.8506 257.514 43.6641L252.521 40.3359C252.246 40.7494 251.942 41.0135 251.606 41.1929L254.429 46.4871ZM257.634 43.467C259.567 40.0199 261.629 36.6786 263.821 33.4425L258.854 30.0775C256.566 33.4548 254.415 36.9401 252.401 40.533L257.634 43.467ZM263.764 33.5245C264.216 32.9029 264.666 32.256 265.114 31.5841L260.121 28.2559C259.716 28.864 259.313 29.4437 258.911 29.9955L263.764 33.5245ZM265.084 31.6276C265.454 31.0926 265.897 30.5633 266.419 30.0413L262.176 25.7987C261.418 26.5567 260.741 27.3607 260.151 28.2124L265.084 31.6276ZM266.357 30.101C267.913 28.6317 269.159 28.2 270.138 28.2V22.2C267.169 22.2 264.522 23.5817 262.238 25.739L266.357 30.101ZM270.138 28.2C271.041 28.2 272.226 28.5635 273.745 29.7353L277.41 24.9847C275.196 23.2765 272.754 22.2 270.138 22.2V28.2ZM273.577 29.5957C275.028 30.8942 275.618 32.265 275.618 33.84H281.618C281.618 30.4017 280.18 27.4525 277.578 25.1243L273.577 29.5957ZM275.618 33.84C275.618 34.8121 275.379 35.8082 274.834 36.859L280.161 39.621C281.109 37.7918 281.618 35.8546 281.618 33.84H275.618ZM274.919 36.7068C273.948 38.339 272.767 39.6133 271.382 40.5788L274.813 45.5012C276.948 44.0134 278.7 42.0876 280.076 39.7732L274.919 36.7068ZM271.443 40.5377C268.318 42.6041 265.512 43.9358 263.015 44.6294L264.62 50.4106C267.883 49.5042 271.264 47.8492 274.752 45.5423L271.443 40.5377ZM262.941 44.6509C260.569 45.3756 258.527 46.6142 257.098 48.52C255.665 50.4306 255.058 52.732 255.058 55.2H261.058C261.058 53.7214 261.41 52.7694 261.898 52.12C262.388 51.4658 263.226 50.8377 264.694 50.3891L262.941 44.6509ZM255.058 55.2C255.058 56.0044 255.124 56.8411 255.248 57.7043L261.187 56.8557C261.097 56.2255 261.058 55.6756 261.058 55.2H255.058ZM255.27 57.8377C255.737 60.3052 256.795 62.4924 258.66 64.0702C260.517 65.6417 262.856 66.3394 265.381 66.4377L265.614 60.4423C264.032 60.3806 263.105 59.9717 262.535 59.4898C261.973 59.0143 261.445 58.2015 261.165 56.7223L255.27 57.8377ZM265.498 66.44H266.858V60.44H265.498V66.44ZM269.858 63.44V63.2H263.858V63.44H269.858ZM266.448 66.1719C267.942 66.378 269.021 66.5844 269.739 66.7773C270.099 66.8741 270.3 66.9496 270.388 66.9888C270.528 67.0514 270.282 66.974 269.988 66.6469L274.447 62.6331C273.913 62.0393 273.263 61.7019 272.837 61.5112C272.358 61.2971 271.829 61.1259 271.296 60.9827C270.227 60.6956 268.866 60.4487 267.267 60.2281L266.448 66.1719ZM269.875 66.5141C269.866 66.5033 269.793 66.4111 269.716 66.2384C269.637 66.0612 269.538 65.7583 269.538 65.36H275.538C275.538 64.1626 274.96 63.2664 274.56 62.7659L269.875 66.5141ZM269.568 64.9357C269.593 64.7578 269.65 64.6013 269.716 64.4777C269.78 64.3589 269.84 64.295 269.856 64.2787L274.099 68.5213C274.783 67.8367 275.345 66.9209 275.507 65.7843L269.568 64.9357ZM269.856 64.2787C269.828 64.3074 269.827 64.3035 269.857 64.2823C269.888 64.2607 269.956 64.2173 270.063 64.1746L272.292 69.7454C273.034 69.4486 273.63 68.9897 274.099 68.5213L269.856 64.2787ZM270.353 64.0754C269.127 64.4258 267.884 64.6 266.618 64.6V70.6C268.444 70.6 270.241 70.3475 272.002 69.8446L270.353 64.0754ZM285.461 63.92L283.797 66.4162L283.815 66.4287L283.834 66.4409L285.461 63.92ZM283.701 61.92L280.731 62.3443L280.794 62.7851L280.982 63.1887L283.701 61.92ZM283.621 61.36H280.621V61.5732L280.651 61.7843L283.621 61.36ZM284.101 59.76L286.021 62.0647L286.037 62.0513L286.053 62.0378L284.101 59.76ZM286.421 59.52L288.468 57.3268L288.35 57.2168L288.221 57.12L286.421 59.52ZM291.541 59.92L290.346 57.168L290.205 57.2295L290.07 57.3053L291.541 59.92ZM299.861 55.68L301.382 58.2658L301.567 58.1568L301.735 58.0226L299.861 55.68ZM299.861 52.56L298.438 55.2014L298.52 55.2452L298.603 55.2839L299.861 52.56ZM294.261 52V49H294.224L294.187 49.0009L294.261 52ZM290.981 52.08V55.08H291.017L291.054 55.0791L290.981 52.08ZM281.621 49.12L283.551 46.8239L283.528 46.8041L283.504 46.7848L281.621 49.12ZM280.341 41.84L278.076 39.8729L278.029 39.926L277.986 39.9811L280.341 41.84ZM291.541 30.32L293.571 32.529L293.583 32.5178L293.595 32.5065L291.541 30.32ZM297.141 26L295.587 23.4335L295.572 23.4427L295.557 23.4521L297.141 26ZM308.901 27.04L306.809 29.1902L306.876 29.2562L306.948 29.3178L308.901 27.04ZM309.861 28.32L307.177 29.6616L307.229 29.7647L307.288 29.8635L309.861 28.32ZM310.341 29.68L313.251 30.4076L313.341 30.0493V29.68H310.341ZM310.261 30L312.924 31.3809L313.086 31.0688L313.171 30.7276L310.261 30ZM306.981 33.44L308.322 36.1233L308.418 36.0754L308.51 36.0209L306.981 33.44ZM306.821 33.52V36.52H307.529L308.162 36.2033L306.821 33.52ZM305.941 33.12L303.988 35.3978L304.089 35.4841L304.197 35.5612L305.941 33.12ZM304.901 32.24L306.821 29.9353L306.821 29.9353L304.901 32.24ZM304.101 31.6L301.979 33.7213L302.13 33.8721L302.301 34L304.101 31.6ZM303.621 30.96L300.679 31.5484L300.758 31.9423L300.937 32.3016L303.621 30.96ZM303.381 30.16L306.166 29.0458L304.832 25.7119L301.789 27.6171L303.381 30.16ZM285.861 46.24L283.449 44.4563L282.692 45.4788L282.901 46.7332L285.861 46.24ZM286.181 47.2L283.497 48.5416L284.327 50.2H286.181V47.2ZM300.101 48.64L301.089 45.8074L301.077 45.8033L301.065 45.7994L300.101 48.64ZM306.261 53.04L308.565 51.1194L308.556 51.1082L308.546 51.0971L306.261 53.04ZM306.421 58.32L308.745 60.2164L308.749 60.2118L306.421 58.32ZM300.661 62.8L301.81 65.5712L301.838 65.5594L301.867 65.5469L300.661 62.8ZM293.781 65.04L293.068 62.1258L292.993 62.1442L292.919 62.1665L293.781 65.04ZM290.661 62.52C289.473 62.52 288.299 62.1807 287.087 61.3991L283.834 66.4409C285.929 67.7926 288.221 68.52 290.661 68.52V62.52ZM287.125 61.4238C286.74 61.1673 286.54 60.9093 286.419 60.6513L280.982 63.1887C281.608 64.5307 282.581 65.6061 283.797 66.4162L287.125 61.4238ZM286.67 61.4957L286.59 60.9357L280.651 61.7843L280.731 62.3443L286.67 61.4957ZM286.621 61.36C286.621 61.1361 286.646 61.1163 286.614 61.222C286.581 61.3335 286.443 61.7135 286.021 62.0647L282.18 57.4553C280.758 58.6402 280.621 60.4159 280.621 61.36H286.621ZM286.053 62.0378C285.909 62.1614 285.765 62.229 285.664 62.2607C285.572 62.2897 285.547 62.28 285.621 62.28V56.28C284.484 56.28 283.212 56.5706 282.148 57.4822L286.053 62.0378ZM285.621 62.28C285.425 62.28 285.024 62.2226 284.621 61.92L288.221 57.12C287.39 56.4974 286.456 56.28 285.621 56.28V62.28ZM284.374 61.7132C285.608 62.8649 287.163 63.64 288.981 63.64V57.64C288.953 57.64 288.921 57.637 288.863 57.6115C288.796 57.5823 288.662 57.5082 288.468 57.3268L284.374 61.7132ZM288.981 63.64C290.421 63.64 291.776 63.2296 293.011 62.5347L290.07 57.3053C289.599 57.5704 289.247 57.64 288.981 57.64V63.64ZM292.735 62.672C295.676 61.3955 298.559 59.9263 301.382 58.2658L298.34 53.0942C295.722 54.6337 293.058 55.9912 290.346 57.168L292.735 62.672ZM301.735 58.0226C302.447 57.4528 302.929 56.7324 303.264 56.0616L297.897 53.3784C297.856 53.4604 297.834 53.4883 297.841 53.48C297.847 53.4713 297.892 53.4129 297.987 53.3374L301.735 58.0226ZM303.264 56.0616C303.592 55.406 303.901 54.5579 303.901 53.6H297.901C297.901 53.4294 297.929 53.3222 297.936 53.2958C297.944 53.2692 297.939 53.2949 297.897 53.3784L303.264 56.0616ZM303.901 53.6C303.901 52.3916 303.315 51.4916 302.762 50.9387C302.239 50.4156 301.627 50.0711 301.118 49.8361L298.603 55.2839C298.788 55.3689 298.696 55.3577 298.519 55.1813C298.313 54.9751 297.901 54.435 297.901 53.6H303.901ZM301.283 49.9186C300.355 49.4192 299.168 49.2478 298.239 49.1549C297.165 49.0475 295.827 49 294.261 49V55C295.734 55 296.849 55.0458 297.642 55.1251C298.038 55.1647 298.309 55.2085 298.48 55.2457C298.682 55.29 298.619 55.2989 298.438 55.2014L301.283 49.9186ZM294.187 49.0009L290.907 49.0809L291.054 55.0791L294.334 54.9991L294.187 49.0009ZM290.981 49.08C287.598 49.08 285.225 48.231 283.551 46.8239L279.69 51.4161C282.71 53.9556 286.576 55.08 290.981 55.08V49.08ZM283.504 46.7848C282.278 45.7958 282.141 45.133 282.141 44.8H276.141C276.141 47.5603 277.657 49.7775 279.737 51.4552L283.504 46.7848ZM282.141 44.8C282.141 44.7146 282.17 44.3647 282.695 43.6989L277.986 39.9811C276.912 41.342 276.141 42.9654 276.141 44.8H282.141ZM282.606 43.8071C286.052 39.8386 289.707 36.0794 293.571 32.529L289.511 28.111C285.481 31.814 281.669 35.7347 278.076 39.8729L282.606 43.8071ZM293.595 32.5065C295.216 30.9836 296.926 29.6659 298.724 28.5479L295.557 23.4521C293.409 24.7874 291.385 26.3498 289.487 28.1335L293.595 32.5065ZM298.694 28.5665C300.426 27.5181 301.754 27.16 302.741 27.16V21.16C300.313 21.16 297.908 22.0286 295.587 23.4335L298.694 28.5665ZM302.741 27.16C303.884 27.16 305.226 27.6503 306.809 29.1902L310.993 24.8898C308.629 22.5897 305.863 21.16 302.741 21.16V27.16ZM306.948 29.3178C306.961 29.3285 307.052 29.4117 307.177 29.6616L312.544 26.9784C312.136 26.1616 311.587 25.3915 310.853 24.7622L306.948 29.3178ZM307.288 29.8635C307.329 29.9314 307.356 29.9825 307.373 30.0174C307.39 30.0526 307.394 30.0659 307.392 30.0585C307.389 30.0513 307.377 30.0159 307.365 29.9551C307.353 29.8939 307.341 29.8004 307.341 29.68H313.341C313.341 28.5122 312.867 27.4998 312.433 26.7765L307.288 29.8635ZM307.43 28.9524L307.35 29.2724L313.171 30.7276L313.251 30.4076L307.43 28.9524ZM307.597 28.619C307.118 29.5444 306.425 30.2822 305.451 30.8591L308.51 36.0209C310.417 34.8911 311.91 33.3356 312.924 31.3809L307.597 28.619ZM305.639 30.7567L305.479 30.8367L308.162 36.2033L308.322 36.1233L305.639 30.7567ZM306.821 30.52C307.076 30.52 307.278 30.5591 307.409 30.5938C307.542 30.6287 307.635 30.6674 307.682 30.6889C307.768 30.7282 307.774 30.7426 307.684 30.6788L304.197 35.5612C304.609 35.8559 305.583 36.52 306.821 36.52V30.52ZM307.893 30.8422C307.511 30.5147 307.154 30.2123 306.821 29.9353L302.98 34.5447C303.288 34.801 303.624 35.0852 303.988 35.3978L307.893 30.8422ZM306.821 29.9353C306.481 29.6518 306.171 29.4028 305.901 29.2L302.301 34C302.457 34.1172 302.68 34.2948 302.98 34.5447L306.821 29.9353ZM306.222 29.4787C306.203 29.4596 306.205 29.4595 306.221 29.48C306.236 29.5007 306.268 29.5465 306.304 29.6184L300.937 32.3016C301.221 32.8681 301.596 33.3375 301.979 33.7213L306.222 29.4787ZM306.562 30.3716C306.471 29.9156 306.337 29.4731 306.166 29.0458L300.595 31.2742C300.638 31.3802 300.663 31.4711 300.679 31.5484L306.562 30.3716ZM301.789 27.6171C294.498 32.1809 288.375 37.7941 283.449 44.4563L288.273 48.0237C292.733 41.9926 298.29 36.8858 304.972 32.7029L301.789 27.6171ZM282.901 46.7332C283.009 47.3768 283.217 47.9814 283.497 48.5416L288.864 45.8584C288.844 45.8177 288.833 45.7888 288.827 45.7713C288.824 45.7625 288.822 45.7562 288.821 45.7524C288.821 45.7504 288.82 45.749 288.82 45.7481C288.82 45.7472 288.82 45.7468 288.82 45.7468L282.901 46.7332ZM286.181 50.2H289.461V44.2H286.181V50.2ZM289.461 50.2C293.528 50.2 296.722 50.6608 299.136 51.4806L301.065 45.7994C297.826 44.6992 293.927 44.2 289.461 44.2V50.2ZM299.113 51.4726C300.829 52.0714 302.454 53.1933 303.975 54.9829L308.546 51.0971C306.441 48.62 303.959 46.8086 301.089 45.8074L299.113 51.4726ZM303.956 54.9606C304.51 55.6248 304.461 55.8708 304.461 55.76H310.461C310.461 53.9425 309.612 52.3752 308.565 51.1194L303.956 54.9606ZM304.461 55.76C304.461 55.7698 304.461 55.8141 304.421 55.9109C304.379 56.0152 304.287 56.1888 304.092 56.4282L308.749 60.2118C309.75 58.9803 310.461 57.4802 310.461 55.76H304.461ZM304.096 56.4236C302.714 58.1179 301.166 59.3017 299.455 60.0531L301.867 65.5469C304.529 64.3783 306.821 62.5754 308.745 60.2164L304.096 56.4236ZM299.512 60.0288C297.473 60.8742 295.326 61.574 293.068 62.1258L294.493 67.9542C297.036 67.3327 299.475 66.5391 301.81 65.5712L299.512 60.0288ZM292.919 62.1665C292.104 62.4109 291.355 62.52 290.661 62.52V68.52C291.993 68.52 293.324 68.3091 294.643 67.9135L292.919 62.1665Z" fill="#222222" mask="url(#path-1-outside-1_6_67)"/>
</svg>
